<?xml version="1.0" encoding="UTF-8"?>
<svg id="Capa_2" xmlns="http://www.w3.org/2000/svg" viewBox="0 0 68.27 64.42">
  <defs>
    <style>
      .cls-1 {
        fill: #6b8a5e;
      }
    </style>
  </defs>
  <g id="Capa_1-2" data-name="Capa_1">
    <g id="Capa_2-2" data-name="Capa_2">
      <g>
        <path class="cls-1" d="M1.94,19.21c0,1.75,0,3.45,0,5.15,0,6.44,0,12.89,0,19.33,0,4.11-.01,8.22,0,12.33,0,1.93,1.25,3.13,3.18,3.13,10.67,0,21.34,0,32,0,.39,0,.65.1.89.41.37.5.79.96,1.24,1.5-.21.01-.35.03-.48.03-11.08,0-22.15,0-33.23.02-1.54,0-2.94-.27-4.08-1.4C.49,58.73,0,57.56,0,56.17c0-9.85,0-19.7,0-29.55,0-5.2,0-10.41,0-15.61,0-2.81,2.13-4.9,4.93-4.89,1.69,0,3.37,0,5.06,0,.24,0,.48-.02.79-.04,0-.72,0-1.41,0-2.1,0-1.89,1.41-3.59,3.23-3.91,1.95-.34,3.85.69,4.47,2.55.21.65.17,1.38.22,2.08.03.44,0,.89,0,1.39h24.45c0-.67,0-1.31,0-1.96C43.14,1.84,44.9.01,47.14,0c2.23-.01,3.94,1.75,3.96,4.07,0,.65,0,1.29,0,2.01.28.02.55.05.81.05,1.7,0,3.41-.01,5.11,0,2.83.03,4.9,2.11,4.9,4.94.01,7.24,0,14.48.01,21.72,0,.13,0,.26,0,.47-.62-.33-1.2-.6-1.74-.93-.13-.08-.18-.38-.18-.58-.01-3.98-.01-7.96-.02-11.94,0-.18,0-.36,0-.58H1.94ZM1.94,17.21h58.02c0-2.22.09-4.41-.03-6.58-.09-1.61-1.38-2.58-3-2.58-1.74,0-3.48,0-5.22,0-.2,0-.39.02-.61.03,0,.45,0,.84,0,1.23.01,2.27-1.68,4.01-3.92,4.03-2.26.02-4.01-1.72-4.02-4,0-.42,0-.83,0-1.25h-24.43c0,.47,0,.89,0,1.31,0,2.25-1.73,3.94-4.06,3.94-2.08,0-3.89-1.83-3.88-3.92,0-.44,0-.88,0-1.37-.26,0-.46,0-.66,0-1.7,0-3.41,0-5.11,0-1.8,0-3.05,1.23-3.06,3.02,0,1.61,0,3.22-.01,4.83,0,.42,0,.84,0,1.31ZM45.13,6.67c0,.44,0,.89,0,1.33,0,.44,0,.89,0,1.33.03,1.21.87,2.07,1.99,2.09,1.11.01,2-.88,2.01-2.07.02-1.77.02-3.55,0-5.32,0-1.19-.89-2.09-1.99-2.09-1.15,0-2.02.91-2.03,2.12,0,.87,0,1.74,0,2.6ZM12.75,6.68h.01c0,.91-.02,1.81,0,2.72.03,1.16.94,2.04,2.07,2.02,1.06-.02,1.92-.9,1.93-2.03.01-1.78.01-3.55,0-5.33,0-1.21-.91-2.12-2.04-2.1-1.12.02-1.97.93-1.97,2.12,0,.87,0,1.74,0,2.61Z"/>
        <path class="cls-1" d="M68.27,48.96c.12,8.12-6.73,15.23-15.17,15.46-8.82.23-16.09-6.79-16.13-15.61-.04-8.63,7.08-15.64,15.88-15.57,8.56.06,15.55,7.15,15.42,15.72ZM66.34,48.77c-.05-7.44-6.24-13.58-13.61-13.59-7.54-.01-13.73,6-13.8,13.5-.06,7.69,6.17,13.85,13.77,13.8,7.54-.04,13.68-6.22,13.63-13.71Z"/>
        <path class="cls-1" d="M44.36,24.25c.55,0,1.11,0,1.66,0,.57,0,.86.27.87.84.01,1.15.01,2.29,0,3.44,0,.56-.27.83-.81.84-1.16.01-2.33.02-3.49,0-.6,0-.87-.3-.87-.9,0-1.11-.01-2.22,0-3.33,0-.6.28-.89.88-.9.59-.01,1.18,0,1.77,0h0Z"/>
        <path class="cls-1" d="M35.63,37.89c-.57,0-1.15.01-1.72,0-.61-.02-.87-.28-.88-.9-.01-1.11-.01-2.22,0-3.33,0-.57.28-.87.84-.88,1.17-.02,2.33-.03,3.5-.02.52,0,.82.31.83.84.02,1.13.02,2.26,0,3.39,0,.59-.3.86-.91.87-.56,0-1.11,0-1.67,0,0,0,0,.01,0,.02Z"/>
        <path class="cls-1" d="M35.68,24.26c.57,0,1.15,0,1.72,0,.5,0,.78.27.78.74.02,1.22,0,2.44-.02,3.66-.01.46-.32.7-.77.71-1.18.01-2.37.02-3.55,0-.53,0-.81-.31-.81-.85-.01-1.15-.01-2.29,0-3.44,0-.55.27-.82.82-.83.61-.02,1.22,0,1.83,0,0,0,0,.01,0,.02Z"/>
        <path class="cls-1" d="M29.48,26.84c0,.57,0,1.15,0,1.72,0,.52-.3.79-.79.8-1.17.02-2.33.01-3.5,0-.54,0-.83-.3-.83-.83-.01-1.15-.02-2.29-.01-3.44,0-.53.28-.84.81-.84,1.18-.02,2.37-.01,3.55,0,.49,0,.75.28.77.76.02.61,0,1.22,0,1.83,0,0,0,0,0,0Z"/>
        <path class="cls-1" d="M29.48,43.86c0,.57,0,1.15,0,1.72-.01.56-.27.82-.82.82-1.15,0-2.3,0-3.44,0-.58,0-.85-.27-.86-.85-.01-1.13-.01-2.26,0-3.39,0-.56.3-.86.86-.87,1.13-.01,2.26-.01,3.39,0,.59,0,.87.31.88.9,0,.56,0,1.11,0,1.67Z"/>
        <path class="cls-1" d="M29.49,35.35c0,.57,0,1.14,0,1.72,0,.52-.29.79-.79.8-1.16.02-2.33.02-3.49,0-.59,0-.84-.27-.85-.86-.01-1.11-.01-2.22,0-3.32,0-.62.3-.93.91-.93,1.11-.02,2.22-.02,3.32,0,.63,0,.89.29.9.93,0,.55,0,1.11,0,1.66Z"/>
        <path class="cls-1" d="M18.29,24.25c.57,0,1.15,0,1.72,0,.52,0,.8.28.81.79.02,1.16.02,2.33,0,3.49,0,.53-.29.82-.83.83-1.16.02-2.33.02-3.49,0-.5,0-.78-.31-.78-.82,0-1.16-.02-2.33,0-3.49,0-.52.32-.79.86-.8.57-.01,1.15,0,1.72,0h0Z"/>
        <path class="cls-1" d="M18.24,37.88c-.55,0-1.11,0-1.66,0-.59,0-.85-.26-.86-.85-.01-1.11-.01-2.22,0-3.33,0-.62.3-.92.92-.93,1.07-.02,2.15-.02,3.22-.02.7,0,.97.28.97.98,0,1.07,0,2.14,0,3.22,0,.65-.25.9-.91.91-.55.01-1.11,0-1.66,0h0Z"/>
        <path class="cls-1" d="M7.11,52.41c0-.55,0-1.11,0-1.66,0-.62.26-.9.86-.91,1.13-.01,2.25-.01,3.38,0,.57,0,.86.29.86.86,0,1.13,0,2.25-.02,3.38-.01.58-.29.85-.86.85-1.11.01-2.22.01-3.33,0-.65,0-.89-.27-.89-.92,0-.54,0-1.07,0-1.61Z"/>
        <path class="cls-1" d="M20.81,43.88c0,.56,0,1.11,0,1.67-.01.58-.26.85-.85.85-1.15.02-2.3,0-3.44,0-.49,0-.78-.27-.79-.75-.02-1.22-.02-2.44,0-3.66.01-.46.34-.69.78-.7,1.15-.01,2.3-.02,3.44,0,.58,0,.85.32.86.92,0,.56,0,1.11,0,1.67h0Z"/>
        <path class="cls-1" d="M9.63,46.4c-.57,0-1.15.01-1.72,0-.56-.02-.81-.27-.81-.83,0-1.15,0-2.29,0-3.44,0-.53.3-.81.78-.82,1.18-.03,2.37-.03,3.55,0,.49.01.77.35.77.84,0,1.13,0,2.25-.01,3.38-.01.61-.29.86-.9.88-.55.01-1.11,0-1.66,0h0Z"/>
        <path class="cls-1" d="M18.28,54.94c-.57,0-1.15.01-1.72,0-.54-.01-.83-.29-.84-.82-.02-1.15-.02-2.29-.01-3.44,0-.56.3-.84.88-.84,1.11-.01,2.22,0,3.33,0,.62,0,.9.32.9.93,0,1.07,0,2.14,0,3.22,0,.71-.26.94-.98.95-.52,0-1.04,0-1.55,0h0Z"/>
        <path class="cls-1" d="M7.11,35.35c0-.57,0-1.15,0-1.72.01-.58.27-.85.85-.86,1.13-.01,2.25-.01,3.38,0,.53,0,.83.28.85.82.03,1.16.03,2.33.01,3.49,0,.47-.29.77-.76.78-1.2.02-2.4.03-3.6,0-.48,0-.73-.31-.73-.8,0-.57,0-1.15,0-1.72Z"/>
        <path class="cls-1" d="M49.77,51.86c1.36-1.44,2.65-2.81,3.96-4.17,1.57-1.64,3.16-3.27,4.74-4.91.44-.46.97-.68,1.6-.57.63.11,1.08.47,1.28,1.09.19.6.03,1.13-.4,1.58-.79.83-1.59,1.66-2.38,2.49-2.54,2.67-5.07,5.34-7.6,8-.69.73-1.59.76-2.29.06-1.52-1.52-3.03-3.04-4.53-4.57-.66-.68-.68-1.65-.07-2.28.62-.65,1.74-.68,2.41-.02,1.09,1.08,2.16,2.18,3.29,3.31Z"/>
      </g>
    </g>
  </g>
</svg>