<?xml version="1.0" encoding="UTF-8"?>
<svg id="Capa_2" xmlns="http://www.w3.org/2000/svg" viewBox="0 0 66.25 70.69">
  <defs>
    <style>
      .cls-1 {
        fill: #6b8a5e;
      }
    </style>
  </defs>
  <g id="Capa_6">
    <g>
      <path class="cls-1" d="M56.05,38.12c.03,2.02-.31,3.98-1.33,5.74-.5.87-1.17,1.65-1.84,2.4-.36.41-.55.8-.45,1.31.16.83.27,1.67.53,2.47,1.1,3.45,2.25,6.88,3.39,10.32.05.14.11.28.17.42.89,1.95,1.84,2.44,3.97,2.22,1.21-.12,2.43-.1,3.65-.07.45.01.93.16,1.35.35.75.34,1.01,1.35.45,1.94-.55.57-1.19,1.12-1.89,1.46-4.29,2.07-8.81,3.41-13.55,3.97-.55.06-1.12-.01-1.68-.07-.63-.06-1.09-.38-1.3-1.01-.2-.6-.05-1.16.4-1.54.79-.66,1.63-1.26,2.48-1.83.62-.42,1.29-.77,1.94-1.14,1.06-.61,1.51-1.55,1.26-2.71-.5-2.29-1.02-4.58-1.68-6.83-.69-2.34-1.55-4.62-2.35-6.92-.21-.62-.63-.91-1.33-1.01-2.21-.29-4-1.44-5.54-3-2.01-2.03-3.31-4.51-4.25-7.16-2.03-5.72-3.66-11.55-4.81-17.52-.04-.22-.07-.45-.1-.67-.18-1.1.16-1.75,1.22-2.1,1.73-.58,3.46-1.11,5.21-1.64,2.15-.65,4.31-1.29,6.48-1.9.93-.26,1.61.02,2.02.89.88,1.84,1.74,3.7,2.5,5.59,1.72,4.27,3.29,8.59,4.4,13.06.4,1.61.56,3.28.83,4.93-.05,0-.1.02-.15.03ZM36.99,27.02c.62,2.14,1.17,4.14,1.79,6.12.86,2.74,1.72,5.48,3.27,7.94,1.21,1.91,2.69,3.54,4.84,4.39,2.77,1.09,3.89.69,5.4-1.02.16-.18.31-.38.44-.58,1.44-2.15,1.74-4.55,1.53-7.06-.27-3.1-1.27-6-2.26-8.92-.21-.62-.52-.86-1.16-.95-3.01-.43-6.02-.53-9.05-.38-1.57.08-3.13.29-4.8.46ZM51.2,25.47c-.41-1.11-.76-2.13-1.17-3.14-.91-2.22-1.86-4.42-2.8-6.63-.11-.26-.18-.55-.64-.41-3.6,1.11-7.2,2.2-10.81,3.28-.5.15-.6.41-.5.86.33,1.52.64,3.04.97,4.56.12.54.26,1.07.39,1.59,4.86-.95,9.65-.89,14.56-.11ZM64.29,64.74l-.06-.25c-.26,0-.51,0-.77,0-1.26.06-2.51.12-3.77.18-1.72.08-3.08-.54-3.97-2.06-.15-.25-.29-.5-.49-.84,0,.26,0,.4,0,.54,0,.15.02.3.03.45.1,1.48-.47,2.63-1.7,3.46-.4.27-.82.53-1.23.79-.91.56-1.82,1.12-2.73,1.69-.11.07-.2.18-.29.27.02.05.05.1.07.15,5.25-.5,10.2-2.05,14.92-4.37Z"/>
      <path class="cls-1" d="M3.36,59.66c1.22.11,2.17.19,3.12.28,1.45.14,2.26-.31,2.87-1.65,1.86-4.12,3.22-8.41,4.4-12.76.07-.27.1-.55.13-.83.04-.49-.09-.87-.48-1.24-2.6-2.48-3.35-5.63-3.21-9.09.12-2.76.91-5.36,1.78-7.94,1.62-4.8,3.35-9.56,5.51-14.16.1-.22.22-.44.34-.65.51-.84,1.14-1.14,2.1-.85,2.43.72,4.85,1.47,7.27,2.23,1.41.45,2.82.92,4.22,1.41,1.2.42,1.54,1.05,1.33,2.3-.73,4.41-1.87,8.73-3.17,13.01-.91,2.98-1.79,5.97-3.32,8.71-1.46,2.62-3.38,4.79-6.25,5.92-.67.26-1.4.44-2.12.53-.61.08-.98.35-1.19.88-.42,1.06-.89,2.11-1.22,3.2-.96,3.16-1.87,6.33-2.79,9.5-.07.23-.09.48-.12.72-.24,1.53.22,2.41,1.55,3.18,1.04.6,2.06,1.24,3.06,1.9.4.27.76.62,1.09.97.45.47.6,1.05.36,1.67-.24.62-.78.83-1.39.87-1.6.11-3.14-.21-4.68-.58-3.17-.75-6.26-1.75-9.21-3.12-.91-.42-1.76-1-2.6-1.56-.54-.36-.87-.9-.68-1.6.19-.69.72-1,1.37-1.08.72-.09,1.46-.12,1.93-.15ZM29.19,24.97c-.29-.1-.49-.19-.71-.23-2.05-.38-4.08-.81-6.15-1.09-2.39-.32-4.79-.38-7.2-.1-.31.04-.44.15-.53.45-.51,1.61-1.07,3.2-1.58,4.81-.69,2.19-1.19,4.42-1.12,6.75.07,2.17.56,4.22,1.95,5.94.84,1.03,1.76,1.98,3.29,1.8,1.11-.13,2.17-.4,3.16-.95,2.01-1.11,3.4-2.81,4.48-4.78,1.25-2.29,2.04-4.76,2.81-7.23.55-1.77,1.06-3.55,1.6-5.36ZM29.65,23.39c.47-2.33.92-4.6,1.39-6.88.07-.33-.02-.51-.37-.62-3.6-1.13-7.19-2.27-10.78-3.42-.39-.13-.62-.07-.79.33-.81,1.93-1.66,3.85-2.47,5.79-.46,1.1-.86,2.22-1.29,3.35,4.86-.43,9.53.31,14.31,1.44ZM1.97,61.27c2.22,2.04,13.26,5.36,14.88,4.77-.41-.3-.76-.61-1.15-.85-.91-.56-1.86-1.07-2.75-1.65-1.74-1.13-2.3-2.52-1.88-4.54.04-.18.06-.36.1-.54-.21.2-.31.42-.41.64-.74,1.63-1.96,2.54-3.8,2.47-.83-.03-1.65-.13-2.47-.18-.84-.05-1.67-.08-2.51-.12Z"/>
      <path class="cls-1" d="M25.46.1c.12.11.46.27.57.52,1.07,2.48,2.11,4.97,3.15,7.45.24.57.07,1.04-.41,1.22-.49.19-.92-.02-1.16-.59-1.01-2.4-2.02-4.8-3.01-7.21-.31-.74,0-1.38.86-1.4Z"/>
      <path class="cls-1" d="M36.42,1.06c-.05.2-.11.49-.18.78-.59,2.23-1.19,4.46-1.78,6.68-.14.51-.54.79-.99.71-.48-.09-.77-.54-.64-1.08.64-2.49,1.28-4.97,1.94-7.46.13-.51.57-.78,1.01-.67.47.12.66.46.63,1.03Z"/>
      <path class="cls-1" d="M37.15,11.04c.18-.3.27-.56.45-.72,1.93-1.69,3.88-3.37,5.83-5.05.47-.41.98-.43,1.29-.06.31.37.23.92-.2,1.29-1.66,1.43-3.33,2.86-4.99,4.29-.33.28-.61.63-.98.84-.24.14-.63.23-.87.13-.23-.09-.34-.46-.53-.73Z"/>
      <path class="cls-1" d="M40.12,49.12c-.26.21-.4.41-.56.44-1.19.22-1.79.98-2.06,2.1-.04.15-.23.35-.36.35-.13,0-.28-.19-.4-.32-.07-.08-.09-.21-.11-.31-.23-.89-.77-1.48-1.67-1.71-.18-.05-.37-.1-.52-.2-.11-.07-.24-.22-.24-.34,0-.11.14-.25.25-.33.1-.07.24-.08.37-.11.97-.22,1.61-.77,1.82-1.76.02-.11.04-.24.11-.32.12-.13.27-.28.42-.29.11,0,.24.19.34.32.04.05.04.14.06.21.27.98.83,1.65,1.88,1.87.21.04.38.22.69.4Z"/>
      <path class="cls-1" d="M17.27,5.05c-.24.19-.37.37-.54.41-1.15.22-1.8.91-2.05,2.04-.03.15-.28.36-.42.36-.13,0-.34-.23-.38-.39-.28-1.08-.88-1.8-2.04-1.98-.15-.02-.4-.28-.38-.39.02-.17.23-.41.39-.44,1.13-.21,1.79-.86,2.05-1.97.04-.16.28-.35.45-.39.1-.02.33.24.37.4.24,1.09.89,1.74,1.98,1.98.17.04.32.2.57.38Z"/>
      <path class="cls-1" d="M56.15,8.08c-.18.16-.29.33-.42.35-1.02.19-1.63.77-1.84,1.79-.03.14-.25.33-.38.33-.13,0-.33-.2-.37-.35-.23-.98-.79-1.58-1.8-1.76-.15-.03-.32-.26-.35-.42-.02-.08.22-.3.37-.33.95-.21,1.6-.68,1.77-1.7.02-.13.25-.31.39-.32.13,0,.34.19.37.32.23.96.8,1.53,1.78,1.72.15.03.27.2.48.36Z"/>
      <path class="cls-1" d="M32.68,41.57c-.79,0-1.43-.64-1.43-1.43,0-.77.65-1.44,1.42-1.45.77,0,1.39.65,1.38,1.47,0,.79-.61,1.41-1.37,1.41Z"/>
    </g>
  </g>
</svg>