<?xml version="1.0" encoding="UTF-8"?>
<svg id="Capa_2" xmlns="http://www.w3.org/2000/svg" viewBox="0 0 109.4 63.89">
  <defs>
    <style>
      .cls-1 {
        fill: #6b8a5e;
      }
    </style>
  </defs>
  <g id="Capa_1-2" data-name="Capa_1">
    <g>
      <path class="cls-1" d="M54.98,13.94c-2.53-.86-5.06-1.71-7.69-2.61.95-.66,1.82-1.27,2.69-1.87,4.47-3.08,8.94-6.16,13.4-9.25.39-.27.68-.27,1.08-.03,4.22,2.46,8.44,4.9,12.68,7.33.17.1.48.11.65.01,4.28-2.47,8.54-4.97,12.81-7.44.17-.1.51-.1.66,0,5.35,3.69,10.68,7.39,16.02,11.1.03.02.05.06.12.16-2.54.87-5.05,1.74-7.65,2.63.77.55,1.38.97,2.38.71,2.05-.54,4.14-.9,6.22-1.32.3-.06.6-.1,1.06-.17-10.67,16.09-21.26,32.06-31.93,48.16-10.69-16.06-21.32-32.03-32.03-48.12.45.07.77.11,1.08.17,2.27.46,4.53.98,6.81,1.34.52.08,1.14-.37,1.71-.58-.02-.07-.04-.14-.05-.21ZM62.02,12.2c-.23.15-.42.28-.61.4-1.87,1.15-3.76,2.28-5.62,3.44-1.66,1.03-1.65,1.04-3.53.61-.72-.16-1.45-.3-2.34-.49,8.75,13.16,17.4,26.19,26.06,39.21.04-.02.08-.04.12-.07-4.38-17.37-8.77-34.74-13.17-52.18-3.72,2.55-7.31,5.02-11.02,7.57,1.67.59,3.21,1.1,4.73,1.68.49.19.84.14,1.28-.13,1.07-.69,2.18-1.32,3.31-2,.28.69.53,1.31.8,1.97ZM92.02,3.17c-4.34,17.37-8.66,34.65-12.98,51.93.04.01.07.03.11.04,8.57-12.96,17.14-25.92,25.8-39.01-1.4.3-2.63.58-3.87.81-.25.05-.58,0-.8-.13-1.83-1.11-3.65-2.24-5.46-3.37-.64-.4-1.28-.81-1.94-1.23.28-.66.55-1.28.82-1.93.93.56,1.87,1.07,2.75,1.67.7.48,1.35.68,2.13.22.31-.18.7-.24,1.04-.36,1.03-.38,2.06-.76,3.18-1.17-3.63-2.52-7.16-4.97-10.78-7.48ZM76.6,18.83c-.05.31-.1.61-.15.92-.77,5.19-1.55,10.38-2.3,15.58-.12.85-.32,1.77-.14,2.58,1.03,4.53,2.16,9.04,3.26,13.55.06.23.13.47.23.84.08-.22.11-.29.13-.35,1.17-4.78,2.33-9.56,3.49-14.34.05-.2.04-.42,0-.63-.81-5.54-1.62-11.08-2.44-16.62-.08-.53-.03-1.29-.34-1.51-.38-.27-1.08-.07-1.64-.07-.02,0-.03.02-.11.06ZM79.18,9.15c2.59,1.98,5.09,3.88,7.65,5.83,1.02-4.03,2.02-7.95,3.05-12.01-3.64,2.1-7.13,4.12-10.7,6.19ZM65.13,3.01c1.01,4.03,2,7.94,3,11.94,2.58-1.96,5.08-3.85,7.63-5.79-3.55-2.05-7.01-4.05-10.63-6.14ZM72.45,32.3c.1-.22.12-.25.13-.29.66-4.58,1.32-9.15,1.98-13.73.02-.17.08-.38,0-.51-.65-1.18-1.33-2.35-2.01-3.54-1.18.89-2.31,1.75-3.45,2.58-.32.23-.38.45-.29.83.87,3.44,1.72,6.89,2.58,10.34.34,1.38.68,2.77,1.06,4.31ZM82.55,32.12c.07-.17.1-.24.11-.3,1.18-4.77,2.36-9.54,3.53-14.32.04-.16-.09-.44-.24-.55-1.15-.89-2.32-1.76-3.53-2.66-.54.97-1.04,1.93-1.61,2.86-.3.49-.31.96-.23,1.5.39,2.57.75,5.15,1.12,7.73.27,1.88.55,3.76.84,5.75ZM74.32,12.87c.66,1.21,1.28,2.38,1.93,3.55.22.39,2.28.44,2.5.05.66-1.16,1.28-2.34,1.95-3.55-1.09-.83-2.14-1.62-3.2-2.41-1.06.78-2.08,1.55-3.18,2.36Z"/>
      <path class="cls-1" d="M17.8,17.01c-.46-.7-.95-1.4-1.39-2.13-1.27-2.09-1.97-4.36-2.04-6.8-.06-2.13-.01-4.27-.01-6.45h2.43v5.95c2.16.32,4.3.59,5.91,2.24,1.47-1.42,3.28-1.89,5.18-2.08.54-.05.71-.21.7-.77-.04-1.75-.01-3.5-.01-5.3h2.51c.02.06.06.12.06.17.01,2.95.13,5.91-.49,8.83-.51,2.37-1.6,4.45-3.07,6.29,1.45,1.77,2.9,3.5,4.3,5.26,4.11,5.16,6.96,10.97,8.86,17.28,1.67,5.54,2.95,11.16,3.93,16.85.29,1.67.49,3.35.75,5.02.06.37-.05.54-.4.69-4.69,2.02-9.42,2.37-14.25.51-.29-.11-.7-.15-.99-.04-4.51,1.75-9.03,1.82-13.56.13-.66-.25-1.22-.23-1.88.03-4.29,1.63-8.57,1.4-12.82-.21-.51-.19-1.2-.29-1.44-.67-.22-.34.04-1,.12-1.52,1.18-7.8,2.82-15.49,5.28-22.99,2.06-6.29,5.3-11.91,9.53-16.98.92-1.1,1.85-2.2,2.78-3.3ZM22.74,18.4s0,.01,0,.02c-.47,0-.94.06-1.4-.01-1.14-.17-1.94.15-2.74,1.09-2.62,3.12-5.13,6.31-7.16,9.85-2.23,3.89-3.76,8.06-4.98,12.35-1.71,5.99-2.97,12.08-3.97,18.23-.05.33,0,.5.34.6,1.73.53,3.48.98,5.31,1.01,2.35.05,4.53-.61,6.69-1.43.27-.1.64-.1.91,0,1.84.69,3.69,1.34,5.67,1.54,2.96.3,5.71-.45,8.4-1.56.24-.1.58-.14.8-.04,3.86,1.71,7.77,1.94,11.77.56.54-.19.68-.41.57-.95-.93-4.55-1.76-9.12-2.78-13.65-.91-4.08-2.18-8.07-3.81-11.93-2.45-5.82-6.21-10.76-10.37-15.42-.14-.16-.43-.24-.65-.25-.87-.03-1.75-.01-2.63-.01ZM28.47,9.91c-3.14,0-4.99,1.55-5.73,4.55-1.09-3.73-3.16-4.45-5.82-4.53,0,.04-.01.08,0,.12.42,2.24,1.51,4.15,2.93,5.88.1.13.33.21.5.21,1.56.02,3.11.02,4.67.02.16,0,.38-.05.46-.15,1.41-1.8,2.63-3.71,3.01-6.09Z"/>
    </g>
  </g>
</svg>