<?xml version="1.0" encoding="UTF-8"?>
<svg id="Capa_2" xmlns="http://www.w3.org/2000/svg" viewBox="0 0 56.5 63.9">
  <defs>
    <style>
      .cls-1 {
        fill: #6b8a5e;
      }
    </style>
  </defs>
  <g id="Capa_5">
    <path class="cls-1" d="M53.17,44.66v15.75c.52,0,1,0,1.47,0,.61.01.98.33,1.01.93.03.53.03,1.06.01,1.59-.03.65-.44.98-1.18.98-2.86,0-5.73,0-8.59,0-14.59,0-29.17,0-43.76,0-.98,0-1.31-.32-1.31-1.3,0-.38,0-.76,0-1.14.02-.71.37-1.05,1.09-1.05.46,0,.92,0,1.44,0v-15.72c-.25.12-.43.23-.63.31-.77.33-1.57.14-2.22-.51-.49-.5-.67-1.41-.33-2.08.13-.27.37-.52.62-.68,1.88-1.2,3.78-2.38,5.67-3.57,4.12-2.58,8.25-5.16,12.38-7.73.32-.2.44-.41.44-.79-.02-2.53-.01-5.06-.02-7.6,0-.18-.02-.36-.02-.55-.85.23-1.58.15-2.15-.54-.55-.67-.49-1.51.16-2.07,3.32-2.89,6.65-5.77,9.98-8.65.28-.24.39-.48.38-.84-.02-1.67-.01-3.34-.02-5.01,0-.18,0-.36,0-.59h-2.68v-1.28h2.68V0h1.29v2.46h2.73v1.29h-2.71c0,.7,0,1.34,0,1.99,0,1.21.02,2.42,0,3.62,0,.36.1.62.37.85,2.81,2.42,5.6,4.85,8.4,7.28.5.43.99.88,1.5,1.3.54.44.72.97.51,1.63-.19.6-.85,1.1-1.51,1.12-.31.01-.62-.05-.96-.08,0,.76,0,1.52,0,2.28,0,1.97,0,3.94-.01,5.91,0,.34.1.54.39.72,2.34,1.44,4.67,2.89,7,4.34,2.85,1.78,5.69,3.57,8.53,5.36.84.53,1.67,1.07,2.53,1.58.68.41.93,1.02.82,1.77-.12.76-.55,1.31-1.28,1.57-.7.25-1.37.14-2.02-.35ZM28.24,14.81c-2.49,1.87-4.97,3.73-7.43,5.6-.13.1-.2.36-.2.55-.01,3.38,0,6.75,0,10.13,0,9.22,0,18.44,0,27.66,0,.46,0,.92,0,1.39h3.16c0-.62,0-1.2,0-1.77,0-2.66-.03-5.33.02-7.99.06-3.23,3.34-5.31,6.29-3.99,1.75.78,2.69,2.16,2.7,4.09.02,3.03,0,6.06,0,9.09,0,.19,0,.38,0,.58h3.14c0-1.19,0-2.33,0-3.47,0-11.88,0-23.77,0-35.65,0-.35-.11-.57-.4-.77-.77-.54-1.52-1.11-2.28-1.68-1.67-1.25-3.33-2.5-5-3.75ZM51.81,60.41c0-.22,0-.39,0-.55,0-4.91-.02-9.83.02-14.74,0-.87-.19-1.37-1-1.86-4.38-2.6-8.71-5.29-13.05-7.94-.16-.1-.33-.18-.51-.27v25.36h14.54ZM19.25,34.99c-.3.17-.51.3-.72.42-4.5,2.75-9,5.51-13.51,8.25-.28.17-.31.37-.31.65,0,5.19,0,10.39.01,15.58,0,.16,0,.32,0,.49h14.53v-25.39ZM2.15,62.54h52.16v-.94H2.15v.94ZM28.26,11.05c-.14.12-.26.21-.37.3-2.09,1.81-4.18,3.62-6.27,5.43-1.11.96-2.24,1.92-3.34,2.89-.1.09-.19.37-.14.43.12.13.32.21.5.22.12,0,.27-.12.38-.2,1.59-1.19,3.17-2.39,4.76-3.58,1.48-1.12,2.95-2.24,4.44-3.37,1.73,1.31,3.43,2.6,5.13,3.88,1.38,1.03,2.76,2.05,4.15,3.07.28.21.6.29.84-.02.24-.31-.13-.43-.29-.57-1.62-1.42-3.25-2.82-4.88-4.23-1.63-1.41-3.26-2.81-4.92-4.25ZM37.23,31.71c0,.39.03.7,0,1-.07.55.16.86.63,1.14,2.59,1.56,5.16,3.16,7.74,4.74,2.79,1.71,5.59,3.41,8.38,5.11.44.27.84.18,1.07-.18.22-.35.09-.69-.37-.97-4.97-3.09-9.94-6.18-14.91-9.27-.82-.51-1.65-1.02-2.54-1.56ZM19.26,31.69c-1.47.91-2.86,1.77-4.25,2.63-4.44,2.76-8.88,5.52-13.32,8.28-.36.22-.45.52-.29.89.15.34.57.49.92.32.32-.16.63-.36.94-.55,2.74-1.68,5.47-3.36,8.21-5.04,2.51-1.54,5.02-3.08,7.52-4.63.13-.08.25-.27.26-.42.03-.46.01-.92.01-1.48Z"/>
    <path class="cls-1" d="M28.26,20.88c1.03-.74,2.1-1,3.27-.58,1.73.63,2.59,2.36,2.16,4.31-.42,1.9-1.61,3.26-3.08,4.42-.66.52-1.37.99-2.07,1.45-.12.08-.35.11-.47.04-1.38-.81-2.67-1.73-3.71-2.95-1.11-1.31-1.87-2.79-1.58-4.58.41-2.57,3.08-3.7,5.26-2.27.07.04.14.09.22.14ZM28.32,29.2c.91-.77,1.88-1.49,2.72-2.34.95-.97,1.53-2.16,1.39-3.58-.1-1.06-.86-1.83-1.85-1.88-.81-.03-1.46.34-1.98.95-.11.13-.21.27-.3.38-.36-.33-.65-.67-1-.9-1.39-.95-3.09-.21-3.22,1.47-.05.66.12,1.39.38,2.01.73,1.76,2.25,2.79,3.87,3.89Z"/>
    <path class="cls-1" d="M28.2,43.48c-2.86,0-5.29-2.38-5.29-5.17,0-2.76,2.4-5.1,5.23-5.1,3.02,0,5.47,2.32,5.45,5.15-.02,2.82-2.45,5.12-5.39,5.12ZM28.18,34.45c-2.22.01-4.01,1.8-3.98,3.97.03,2.13,1.87,3.82,4.15,3.79,2.14-.02,3.92-1.75,3.91-3.81,0-2.24-1.8-3.97-4.09-3.96Z"/>
    <path class="cls-1" d="M48.04,54.74h-7.03c-.02-.1-.04-.2-.04-.29,0-2.03-.03-4.07,0-6.1.02-1.77,1.27-3.16,3-3.42,1.68-.25,3.38.77,3.91,2.38.11.32.18.68.18,1.02.02,2.03.01,4.07.01,6.1,0,.1-.02.19-.03.31ZM46.74,53.45c0-1.66,0-3.26,0-4.86,0-1.37-.97-2.34-2.3-2.34-1.33,0-2.19.93-2.18,2.35,0,1.44,0,2.87,0,4.31,0,.17,0,.35,0,.54h4.48Z"/>
    <path class="cls-1" d="M8.48,54.74c0-.5,0-.98,0-1.45,0-1.57,0-3.14-.01-4.71,0-2.1,1.5-3.66,3.54-3.67,2.02-.01,3.55,1.55,3.56,3.65,0,1.93,0,3.87,0,5.8,0,.11,0,.23,0,.38h-7.09ZM14.25,53.44c0-1.76.05-3.46-.02-5.16-.04-1.23-1.09-2.1-2.31-2.06-1.22.04-2.12.98-2.13,2.24,0,.94,0,1.89,0,2.83,0,.71,0,1.41,0,2.15h4.45Z"/>
  </g>
</svg>