<?xml version="1.0" encoding="UTF-8"?>
<svg id="Capa_2" xmlns="http://www.w3.org/2000/svg" viewBox="0 0 164.66 166.96">
  <defs>
    <style>
      .cls-1 {
        fill: #6b8a5e;
      }

      .cls-2 {
        fill: #87a878;
      }
    </style>
  </defs>
  <g id="Capa_8">
    <g>
      <path class="cls-1" d="M121.31,21.98c.08,4.91-1.58,9.27-4.13,13.34-2.24,3.57-5,6.72-7.93,9.72-6.23,6.37-12.81,12.38-19.37,18.42-1.4,1.29-2.84,2.55-4.16,3.91-1.55,1.59-3.98,2.05-6.13.12-1.33-1.19-2.62-2.43-3.93-3.65-5.44-5.05-10.95-10.04-16.27-15.22-3.72-3.62-7.3-7.36-10.3-11.61-2.17-3.07-3.97-6.34-4.75-10.05-1.61-7.66.08-14.55,5.33-20.38C53.84,1.93,59.12-.37,65.44.08c3.57.26,6.68,1.71,9.4,4.01,2.43,2.06,4.39,4.53,6.15,7.18.4.6.81,1.2,1.22,1.8.27.4.53.36.79-.02.28-.41.56-.82.83-1.23,1.86-2.75,3.81-5.42,6.37-7.58,3.77-3.19,8.1-4.67,13.01-4.13,4.17.46,7.83,2.19,10.9,5.06,4.85,4.54,7.13,10.22,7.21,16.81Z"/>
      <path class="cls-2" d="M154.52,95.72c0,16.53,0,33.06,0,49.59,0,1.62-.25,3.2-1.08,4.61-1.69,2.89-4.16,4.63-7.59,4.65-3.96.02-7.92-.16-11.88-.02-3.8.14-7.58.54-11.34,1.08-4.29.62-8.54,1.48-12.73,2.59-4.57,1.21-8.99,2.82-13.33,4.71-2.24.97-4.41,2.06-6.58,3.17-2.27,1.16-4.52,1.15-6.78,0-4.24-2.17-8.64-3.96-13.19-5.39-4.9-1.54-9.88-2.71-14.93-3.66-3.21-.6-6.44-1.11-9.67-1.5-2.9-.34-5.81-.62-8.74-.8-2.51-.16-5.02-.09-7.53-.26-1.87-.13-3.73-.18-5.59-.07-1.48.09-2.96.17-4.44.18-3.78.02-7.12-2.31-8.47-5.99-.41-1.11-.49-2.29-.49-3.48,0-19.61,0-39.23,0-58.84,0-13.33,0-26.66-.01-39.99,0-2.2.51-4.23,1.85-5.99,1.75-2.31,4.04-3.64,7.01-3.66,3.24-.02,6.46.2,9.68.42,2.81.19,5.6.46,8.39.78,2.53.28,5.04.68,7.55,1.11,1.38.23,2.18,1.15,2.3,2.34.17,1.78-1.34,3.14-3.24,2.88-1.54-.21-3.07-.49-4.61-.72-2.4-.36-4.81-.65-7.24-.84-2.76-.21-5.53-.46-8.29-.62-1.59-.09-3.2-.13-4.8-.05-1.86.09-3.19,1.67-3.32,3.74-.02.34,0,.69,0,1.03,0,32.6,0,65.2,0,97.8,0,.76-.05,1.52.22,2.26.56,1.58,1.86,2.59,3.54,2.55,2.85-.07,5.7-.22,8.56-.22,3.92,0,7.83.27,11.74.53,2.79.19,5.59.45,8.33.93,2.03.35,4.09.53,6.1.94,4.37.89,8.76,1.73,13.06,2.92,3.6,1,7.18,2.09,10.65,3.51.75.3.87.22.91-.54.02-.3,0-.61,0-.91,0-27,0-54.01,0-81.01,0-.8.05-1.6.16-2.39.18-1.32,1.2-2.15,2.65-2.14,1.3,0,2.41.91,2.57,2.13.06.45.03.91.03,1.37,0,28.18.01,56.37-.02,84.55,0,1.21.36,1.84,1.44,2.34.94.43,1.68.39,2.57-.09,5.44-2.93,11.12-5.33,17.02-7.16,4.25-1.32,8.58-2.32,12.96-3.12,3.63-.66,7.28-1.09,10.96-1.42,4.56-.41,9.12-.46,13.68-.37.76.01,1.51.12,2.27.18,2.47.19,4.33-1.57,4.32-4.15-.06-16.15-.03-32.3-.03-48.44,0-16.22.02-32.45.03-48.67,0-.69-.03-1.37,0-2.06.08-2.38-1.43-4.06-4.05-4.08-2.09-.01-4.19.08-6.27.27-1.63.15-3.26.18-4.89.34-3.63.36-7.26.74-10.86,1.32-.82.13-1.65.27-2.49.31-1.1.05-2.11-.64-2.53-1.62-.65-1.52.15-3.2,1.79-3.56,1.41-.31,2.84-.51,4.27-.7,2.75-.37,5.5-.71,8.25-1.05,1.21-.15,2.43-.17,3.64-.26,1.86-.14,3.71-.33,5.58-.3.8.01,1.59-.07,2.39-.13,3.67-.26,6.75.97,8.95,3.98,1.05,1.44,1.52,3.15,1.58,4.93.06,1.6.02,3.2.02,4.8,0,15.16,0,30.32,0,45.47h-.04Z"/>
      <path class="cls-1" d="M.09,107.44c0-10.43.01-20.87,0-31.3C.08,69.93.03,63.72,0,57.51c-.01-2.62,1.11-4.62,3.34-5.98.79-.48,1.66-.76,2.6-.79,1.25-.05,1.76.42,1.76,1.67.02,3.28,0,6.55.01,9.83.02,27.65.07,55.3.03,82.94,0,6.42,4.91,12,12.23,11.78,3.31-.1,6.62-.24,9.94-.11,6.38.25,12.64,1.31,18.83,2.84,2.03.5,4.05,1.07,6.04,1.72.18.06.36.14.54.18.91.17,1.46,1.03,1.29,1.86-.16.75-.68,1.09-1.75,1.09-3.08-.02-6.17-.05-9.25-.07-12.53-.08-25.06-.15-37.59-.22-.38,0-.76,0-1.14-.01-3.64-.14-6.31-2.77-6.41-6.41-.07-2.63-.03-5.26-.04-7.88-.06-14.17-.13-28.33-.19-42.5-.04,0-.09,0-.13,0Z"/>
      <path class="cls-1" d="M164.27,107.66c0,10.09.01,20.18,0,30.28,0,6.59-.1,13.18-.07,19.76.01,3.04-2.13,5.67-4.93,6.35-.6.15-1.21.14-1.82.15-12.87.18-25.74.17-38.61.24-2.86.01-5.71.06-8.57.09-.23,0-.46.01-.69,0-.89-.04-1.45-.47-1.57-1.2-.11-.7.29-1.33,1.13-1.63,2.3-.82,4.64-1.48,7-2.07,5.48-1.37,11.03-2.27,16.66-2.67,3.84-.27,7.69-.18,11.53,0,3.85.18,7.13-1.03,9.71-3.91,1.81-2.02,2.82-4.42,2.82-7.17.02-31.04.02-62.08.03-93.11,0-.23-.02-.46,0-.69.08-.84.47-1.22,1.31-1.28.93-.06,1.83.15,2.65.55,2.32,1.14,3.61,3.01,3.74,5.59.09,1.67.03,3.35.02,5.03-.04,9.22-.1,18.43-.14,27.65-.02,6.02,0,12.03,0,18.05-.08,0-.15,0-.23,0Z"/>
      <path class="cls-2" d="M30.01,129.45c3.59-.17,6.82.07,10.02.48,5.67.73,11.17,2.15,16.53,4.16,5.45,2.04,10.51,4.78,15.27,8.11.95.66,1.52,1.44,1.42,2.65-.12,1.56-1.63,2.68-3.15,2.31-.53-.13-.99-.4-1.42-.71-3.07-2.21-6.35-4.05-9.76-5.65-4.6-2.14-9.41-3.66-14.37-4.73-5.91-1.29-11.89-1.58-17.91-1.35-1.17.04-2.34.23-3.51.37-1.18.14-2.29.08-3.05-1.03-1.17-1.69-.38-3.72,1.63-4.15,1.38-.29,2.79-.36,4.18-.44,1.48-.08,2.97-.02,4.1-.02Z"/>
      <path class="cls-2" d="M30.28,82.37c8.47.03,16.33,1.19,23.94,3.84,6.36,2.22,12.32,5.21,17.8,9.15,1.57,1.13,1.7,3.11.29,4.28-.86.71-1.81.74-2.78.3-.51-.24-.98-.59-1.45-.91-6.8-4.64-14.21-7.89-22.23-9.74-3.78-.87-7.61-1.39-11.5-1.51-1.36-.04-2.73-.2-4.1-.13-2.12.11-4.25.1-6.37.38-.49.06-.99.02-1.48.07-1.25.12-2.71-.79-2.85-2.37-.13-1.41.97-2.68,2.51-2.89.75-.11,1.51-.22,2.26-.22,2.13,0,4.25-.4,5.94-.25Z"/>
      <path class="cls-2" d="M134.08,82.36c2.75.07,5.64.19,8.51.45,1.55.14,2.47,1.24,2.4,2.77-.07,1.59-1.46,2.62-2.69,2.51-2.16-.19-4.32-.31-6.48-.42-.91-.05-1.83-.07-2.74-.02-2.31.12-4.63.21-6.93.45-3.52.36-6.98,1.02-10.39,1.98-7.17,2.01-13.82,5.12-19.94,9.35-.82.57-1.67.86-2.67.5-1.74-.63-2.3-2.68-1.1-4.09.32-.38.72-.67,1.13-.96,6.42-4.5,13.42-7.74,20.96-9.84,4.11-1.15,8.28-1.89,12.53-2.28,2.42-.22,4.85-.37,7.42-.41Z"/>
      <path class="cls-2" d="M29.3,59.23c9.62.05,18.05,1.35,26.22,4.31,5.76,2.09,11.13,4.9,16.18,8.35,1.57,1.07,1.89,2.33,1.26,3.71-.48,1.05-1.73,1.6-2.86,1.33-.53-.13-1-.37-1.43-.68-6.93-4.88-14.56-8.19-22.81-10.05-3.44-.78-6.94-1.26-10.47-1.5-2.28-.15-4.56-.13-6.84-.15-1.83-.02-3.64.18-5.45.38-.89.1-1.75.06-2.49-.56-.78-.66-1.17-1.47-.98-2.52.21-1.14.92-1.81,2.01-2.09.51-.13,1.05-.21,1.58-.23,2.35-.1,4.7-.4,6.1-.3Z"/>
      <path class="cls-2" d="M145,109.32c0,1.61-1.3,2.91-2.87,2.68-3.25-.47-6.52-.45-9.79-.39-7.08.13-13.98,1.31-20.67,3.63-4.94,1.71-9.62,3.99-14.02,6.83-.67.43-1.28.96-1.96,1.37-1.53.93-3.27.44-3.96-1.07-.56-1.23-.26-2.37.9-3.21,2.37-1.72,4.86-3.26,7.45-4.65,6.32-3.4,13.04-5.64,20.07-6.95,2.61-.49,5.24-.82,7.9-1.05,1.78-.15,3.57-.2,5.35-.3,2.31-.13,4.63.08,6.94.3.91.09,1.83.05,2.72.3,1.15.32,1.95,1.34,1.95,2.51Z"/>
      <path class="cls-2" d="M70.57,123.98c-.65.08-1.23-.24-1.81-.65-2.8-1.98-5.74-3.74-8.83-5.21-5.66-2.7-11.56-4.59-17.75-5.63-5.28-.89-10.59-1-15.91-.84-1.21.04-2.42.23-3.62.37-1.33.15-2.54-.66-2.97-1.99-.35-1.08.26-2.48,1.3-3,.63-.31,1.32-.31,2-.42,2.34-.37,4.71-.36,7.05-.36,2.08,0,4.17,0,6.26.25,1.54.19,3.1.28,4.64.49,4.68.65,9.26,1.69,13.72,3.25,6.24,2.19,12.11,5.12,17.48,9.02.96.7,1.36,1.82,1.04,2.91-.31,1.04-1.34,1.8-2.59,1.81Z"/>
      <path class="cls-2" d="M134.46,129.42c2.34-.06,4.77.05,7.2.27.41.04.83.12,1.24.2,1.41.29,2.22,1.37,2.09,2.81-.12,1.38-1.17,2.41-2.55,2.43-.99.01-1.97-.16-2.95-.27-1.86-.22-3.72-.18-5.58-.18-7.08.01-13.99,1.06-20.74,3.23-6.09,1.96-11.8,4.68-17.05,8.33-.6.42-1.19.81-1.97.8-1.16-.02-2.16-.7-2.55-1.78-.35-.98,0-2.15.91-2.85,1.81-1.4,3.75-2.61,5.73-3.74,6.16-3.5,12.72-5.99,19.63-7.53,2.59-.58,5.21-1,7.86-1.29,2.88-.32,5.76-.48,8.75-.43Z"/>
      <path class="cls-2" d="M134.62,59.27c2.7-.03,5.4.07,8.07.44,1.63.23,2.55,1.53,2.28,3.09-.25,1.47-1.55,2.26-3.15,2.09-2.23-.23-4.47-.34-6.71-.36-6.69-.05-13.27.75-19.7,2.54-3.88,1.08-7.64,2.53-11.26,4.34-2.89,1.45-5.69,3.06-8.36,4.89-1.26.86-2.44.73-3.48-.06-1.28-.98-1.05-3.31.17-4.07,1.68-1.04,3.31-2.17,5-3.18,4.33-2.58,8.93-4.56,13.7-6.16,3.79-1.27,7.67-2.12,11.63-2.68,3.92-.55,7.84-.95,11.8-.89Z"/>
    </g>
  </g>
</svg>