<?xml version="1.0" encoding="UTF-8"?>
<svg id="Capa_2" xmlns="http://www.w3.org/2000/svg" viewBox="0 0 75.68 57.2">
  <defs>
    <style>
      .cls-1 {
        fill: #6b8a5e;
      }
    </style>
  </defs>
  <g id="Capa_4">
    <path class="cls-1" d="M7.28,8.57c0-.76,0-1.46,0-2.16,0-1.47.63-2.1,2.1-2.1,2.71,0,5.43,0,8.14,0,1.19,0,2.01.8,2.02,2.01,0,.73,0,1.45,0,2.24,1.05,0,2.04.02,3.02-.02.15,0,.34-.24.41-.42.8-1.86,1.57-3.73,2.35-5.59C26.05.81,27.24.02,29.1.02,34.77.01,40.44.01,46.11,0c2.45,0,3.5.71,4.44,2.98.71,1.72,1.44,3.43,2.18,5.14.08.17.27.41.42.42,1.19.03,2.38.02,3.64.02,0-.76,0-1.47,0-2.17,0-1.35.72-2.07,2.05-2.07,2.77,0,5.55,0,8.32,0,1.16,0,1.89.73,1.9,1.89,0,.77,0,1.53,0,2.25.87.14,1.7.18,2.48.41,2.38.7,4.12,3.08,4.12,5.5,0,12.15.01,24.3,0,36.45,0,2.68-1.21,4.68-3.66,5.79-.82.37-1.8.57-2.7.57-20.25.03-40.51.03-60.76.02-1.19,0-2.41.05-3.57-.16C2.02,56.5.01,54.02,0,51.01,0,38.82,0,26.63,0,14.44c0-3.28,2.63-5.87,5.93-5.87.42,0,.84,0,1.34,0ZM2.35,20.98c0,1.07,0,2.08,0,3.09,0,8.89,0,17.78,0,26.67,0,.96.18,1.85.79,2.62.84,1.07,1.97,1.5,3.3,1.5,9.2,0,18.39,0,27.59,0,11.77,0,23.54,0,35.31,0,2.3,0,3.99-1.67,3.99-3.92,0-9.82,0-19.64,0-29.46,0-.15-.02-.31-.04-.48h-18.79c5.93,8.94,3.49,19.83-3.46,25.83-6.95,5.99-17.33,6.53-24.77,1.2-3.81-2.72-6.45-6.29-7.72-10.8-1.63-5.79-.6-11.2,2.72-16.25H2.35ZM2.4,18.63c.2.01.34.03.48.03,6.64,0,13.29,0,19.93,0,.24,0,.54-.16.71-.34,1.31-1.32,2.75-2.46,4.36-3.37,8.03-4.53,17.73-3.18,24.26,3.34.21.21.58.38.88.38,6.56.02,13.12,0,19.69,0,.19,0,.39-.02.62-.03,0-1.35,0-2.64,0-3.93,0-2.4-1.43-3.81-3.82-3.81-5.69,0-11.38,0-17.07,0-15.53,0-31.07,0-46.6,0-1.7,0-3.25,1.2-3.4,2.86-.15,1.6-.03,3.22-.03,4.89ZM55.66,32.03c-.09-.88-.13-1.78-.27-2.65-.64-3.95-2.41-7.31-5.37-10.01-3.32-3.04-7.21-4.75-11.74-4.81-4.96-.06-9.24,1.63-12.85,5.07-5.07,4.83-6.73,12.35-4.06,18.8,3.22,7.79,11.44,12.24,19.78,10.7,8.29-1.53,14.39-8.75,14.52-17.11ZM50.5,8.55c-.85-1.91-1.63-3.74-2.48-5.55-.25-.53-.79-.71-1.39-.7-1.54.02-3.08.03-4.62.03-4.35,0-8.71,0-13.06,0-.68,0-1.15.28-1.42.92-.59,1.4-1.2,2.78-1.8,4.18-.15.36-.28.73-.43,1.13h25.2ZM66.83,6.54h-7.71v1.98h7.71v-1.98ZM17.21,6.55h-7.6v1.98h7.6v-1.98Z"/>
    <path class="cls-1" d="M11.79,17.58c-1.27,0-2.55,0-3.82,0-.74,0-1.03-.28-1.03-1.02,0-1.03,0-2.06,0-3.09,0-.83.3-1.15,1.12-1.15,2.51,0,5.01,0,7.52,0,.66,0,1.05.33,1.06.97.03,1.13.03,2.26.01,3.4-.01.6-.35.88-.98.88-1.29,0-2.59,0-3.88,0ZM14.44,15.39v-.82h-5.28v.82h5.28Z"/>
    <path class="cls-1" d="M37.83,47.37c-8.76-.03-15.77-6.97-15.65-15.64.12-8.58,7.36-15,15.46-15.1,8.61-.1,15.97,6.85,15.88,15.62-.09,8.27-7.18,15.15-15.7,15.12ZM37.87,18.87c-7.33,0-13.42,5.94-13.41,13.05.01,7.22,6.03,13.22,13.26,13.22,7.6,0,13.65-5.97,13.52-13.5-.12-7.07-6.18-12.78-13.37-12.78Z"/>
    <path class="cls-1" d="M37.91,20.96c6.16-.02,11.23,4.98,11.25,11.09.01,6.13-5.11,11.02-11.55,11.03-5.9,0-11.06-5.11-11.06-10.99,0-6.21,5.01-11.12,11.37-11.13ZM45.45,28.46c-.06-.25-.08-.53-.19-.75-.64-1.28-1.63-2.26-2.85-2.97-.63-.37-1.59-.1-2.04.46-.51.64-.6,1.6-.08,2.19.73.84,1.51,1.63,2.31,2.4.53.52,1.19.55,1.86.23.65-.31.96-.84,1-1.57Z"/>
  </g>
</svg>