<?xml version="1.0" encoding="UTF-8"?>
<svg id="Capa_2" xmlns="http://www.w3.org/2000/svg" viewBox="0 0 181.27 171.77">
  <defs>
    <style>
      .cls-1 {
        fill: #6b8a5e;
      }
    </style>
  </defs>
  <g id="Capa_4">
    <path class="cls-1" d="M17.43,55.29c0-1.82,0-3.5,0-5.18-.01-3.51,1.52-5.04,5.04-5.04,6.5,0,13,0,19.5,0,2.85,0,4.81,1.92,4.85,4.82.02,1.74,0,3.48,0,5.37,2.51,0,4.88.04,7.24-.05.35-.01.81-.58.99-1,1.91-4.45,3.77-8.92,5.63-13.39,1.72-4.11,4.57-6.01,9-6.01,13.58,0,27.17-.02,40.75-.04,5.86-.01,8.39,1.71,10.62,7.15,1.69,4.12,3.46,8.21,5.23,12.3.18.41.66.99,1.01,1,2.85.08,5.7.05,8.73.05,0-1.83,0-3.51,0-5.2.02-3.23,1.73-4.96,4.91-4.97,6.65,0,13.29,0,19.94,0,2.77,0,4.53,1.74,4.55,4.53.01,1.83,0,3.67,0,5.39,2.07.33,4.07.44,5.94.99,5.7,1.68,9.87,7.37,9.87,13.18,0,29.1.04,58.19.01,87.29,0,6.41-2.89,11.22-8.77,13.88-1.97.89-4.3,1.37-6.47,1.37-48.51.07-97.02.06-145.53.04-2.85,0-5.76.11-8.55-.38C4.84,170.1.03,164.15.02,156.94,0,127.75,0,98.55.01,69.36c0-7.86,6.3-14.05,14.21-14.07,1.01,0,2.02,0,3.21,0ZM5.62,85.01c0,2.56,0,4.97,0,7.39,0,21.29,0,42.58,0,63.88,0,2.29.43,4.43,1.89,6.27,2.02,2.56,4.72,3.59,7.91,3.59,22.03,0,44.05.01,66.08.01,28.19,0,56.38,0,84.57,0,5.5,0,9.56-3.99,9.57-9.4.01-23.52,0-47.05,0-70.57,0-.37-.06-.74-.09-1.14h-45.01c14.2,21.41,8.36,47.5-8.29,61.86-16.65,14.35-41.5,15.63-59.33,2.88-9.12-6.53-15.46-15.07-18.49-25.86-3.9-13.87-1.45-26.82,6.5-38.91H5.62ZM5.74,79.39c.48.03.82.07,1.16.07,15.91,0,31.82.02,47.73-.02.58,0,1.28-.38,1.7-.81,3.13-3.15,6.58-5.89,10.44-8.07,19.24-10.86,42.46-7.62,58.11,7.99.51.51,1.39.9,2.1.9,15.72.04,31.43.02,47.15,0,.47,0,.93-.05,1.48-.07,0-3.23.01-6.32,0-9.42-.02-5.75-3.41-9.13-9.14-9.14-13.63,0-27.26-.01-40.89-.01-37.21,0-74.41,0-111.62.01-4.08,0-7.78,2.86-8.15,6.86-.35,3.83-.08,7.72-.08,11.7ZM133.31,111.49c-.21-2.12-.31-4.25-.65-6.35-1.54-9.46-5.77-17.5-12.86-23.98-7.96-7.28-17.28-11.38-28.12-11.52-11.88-.15-22.13,3.91-30.79,12.15-12.15,11.58-16.12,29.58-9.73,45.04,7.72,18.66,27.4,29.31,47.37,25.64,19.85-3.65,34.46-20.95,34.78-40.97ZM120.94,55.24c-2.03-4.57-3.91-8.97-5.93-13.3-.6-1.28-1.89-1.7-3.32-1.68-3.69.05-7.37.07-11.06.07-10.43,0-20.86,0-31.28-.01-1.63,0-2.76.68-3.41,2.21-1.42,3.34-2.89,6.67-4.31,10-.37.86-.67,1.74-1.04,2.71h60.35ZM160.07,50.42h-18.46v4.75h18.46v-4.75ZM41.22,50.45h-18.21v4.74h18.21v-4.74Z"/>
    <path class="cls-1" d="M28.24,76.87c-3.05,0-6.1,0-9.15,0-1.78,0-2.46-.68-2.47-2.44-.01-2.47,0-4.94.02-7.41,0-1.98.72-2.74,2.68-2.75,6-.01,12.01,0,18.01,0,1.59,0,2.5.8,2.54,2.33.07,2.71.08,5.42.03,8.13-.03,1.44-.84,2.11-2.36,2.12-3.1.01-6.2,0-9.3,0ZM34.6,71.62v-1.96h-12.66v1.96h12.66Z"/>
    <path class="cls-1" d="M90.6,148.21c-20.97-.07-37.76-16.7-37.47-37.47.28-20.56,17.64-35.93,37.04-36.17,20.62-.25,38.26,16.41,38.03,37.41-.22,19.81-17.2,36.29-37.59,36.22ZM90.7,79.96c-17.55.01-32.15,14.23-32.12,31.26.03,17.29,14.45,31.66,31.76,31.66,18.2,0,32.7-14.3,32.38-32.32-.3-16.93-14.81-30.62-32.01-30.6Z"/>
    <path class="cls-1" d="M90.8,84.96c14.76-.04,26.9,11.93,26.93,26.55.03,14.69-12.23,26.4-27.67,26.42-14.14.02-26.48-12.23-26.49-26.31-.02-14.87,11.99-26.63,27.23-26.66ZM108.86,102.92c-.15-.6-.19-1.26-.46-1.81-1.54-3.07-3.9-5.41-6.83-7.12-1.5-.87-3.8-.23-4.88,1.11-1.23,1.53-1.43,3.83-.19,5.25,1.75,2,3.61,3.91,5.53,5.75,1.28,1.23,2.86,1.32,4.45.56,1.56-.74,2.29-2.01,2.38-3.75Z"/>
    <g id="Capa_9">
      <path class="cls-1" d="M51.43,33.14c1.64-.06,3.26-.69,4.51-1.94,2.62-2.62,2.62-6.87,0-9.49-2.62-2.62-6.87-2.62-9.49,0,2.62-2.62,2.62-6.87,0-9.49-2.62-2.62-6.87-2.62-9.49,0-1.25,1.25-1.89,2.87-1.94,4.51h0c0,.18,0,.36,0,.55l.21,15.65,15.65.21c.18,0,.36.01.55,0h0Z"/>
      <path class="cls-1" d="M26.84,18.2c-.04-1.15-.49-2.29-1.37-3.17-1.84-1.84-4.83-1.84-6.68,0-1.84,1.84-1.84,4.83,0,6.68-1.84-1.84-4.83-1.84-6.68,0-1.84,1.84-1.84,4.83,0,6.68.88.88,2.02,1.33,3.17,1.37h0c.13,0,.26,0,.38,0l11.01-.15.15-11.01c0-.13,0-.26,0-.38h0Z"/>
      <path class="cls-1" d="M38.38,5.42c.53-.54.87-1.27.89-2.09.04-1.71-1.32-3.14-3.03-3.18s-3.14,1.32-3.18,3.03C33.1,1.46,31.74.04,30.02,0s-3.14,1.32-3.18,3.03c-.02.82.29,1.56.79,2.13h0c.06.06.12.12.18.18l5.07,5.17,5.31-4.93c.06-.06.13-.11.19-.17h0Z"/>
    </g>
  </g>
</svg>