<?xml version="1.0" encoding="UTF-8"?>
<svg id="Capa_2" xmlns="http://www.w3.org/2000/svg" viewBox="0 0 243.27 359.64">
  <defs>
    <style>
      .cls-1 {
        fill: #c4a369;
      }
    </style>
  </defs>
  <g id="mask">
    <g>
      <path class="cls-1" d="M241.84,117.08c.3-.2.61-.38.91-.58.86-.59.53-1.94-.18-2.1-.29-.74-1.46-.94-1.84.06-.14.38-.28.76-.43,1.14-16.22,10.4-35.03,14.07-50.73,25.77-8.14,6.07-15.4,13.65-21.39,22.3-5.47,7.88-8.86,17.35-14.08,25.35-.77.43-1.52.89-2.3,1.32-9.67,5.34-19.59,10.03-28.09,17.65-1,.89.22,2.56,1.21,1.67,6.64-5.95,14.2-10.13,21.8-14.21,8.77,5.72,19.02,5.91,29.06,4.65,11.1-1.39,21.1-5.17,29.88-13.27,18.87-17.41,27.04-45.42,36.17-69.74ZM239.1,118.81c-8.07,21.84-15.57,46.05-31.06,62.76-8.21,8.86-17.92,14.09-29.09,15.89-10.09,1.63-20.91,2.13-29.98-3.22.76-.41,1.53-.82,2.29-1.23-.04.05-.07.1-.1.14-.86,1.05.73,2.28,1.58,1.23.95-1.17,1.82-2.4,2.66-3.66.38-.22.77-.42,1.16-.64,9.24-5.3,18.23-11.17,26.93-17.54,18.75-13.75,36-29.94,51.48-48.08.87-1.02-.34-2.69-1.21-1.67-15.49,18.14-32.73,34.33-51.48,48.08-7.94,5.83-16.16,11.18-24.57,16.09,3.98-6.98,7.05-14.69,11.55-21.31,5.98-8.8,13.32-16.49,21.55-22.62,14.92-11.1,32.7-14.85,48.31-24.22Z"/>
      <path class="cls-1" d="M12.32,170.43c.38,28.13,12.55,53.1,24.35,76.81-1.81,25.61-6.98,50.81-15.93,75.15-8.22,10.74-15.35,22.46-20.65,35.86-.51,1.3,1.32,2.01,1.83.71,5.11-12.92,12.12-24.37,20.19-34.91.03-.03.06-.07.08-.11,8.68-11.32,18.59-21.59,28.75-31.43.17.36.51.63.97.58,13.38-1.51,26.93-2.61,40.43-4.14-.29.53-.25,1.34.39,1.67,15.7,8.02,33.86,16.26,51.42,8.6,9.54-4.16,17.46-13.13,25.35-20.22,8.72-7.85,17.45-15.69,26.17-23.54,1-.9-.22-2.56-1.21-1.67-.12.11-.24.22-.36.33-.08-.06-.16-.11-.28-.14-16.66-4.27-34.19-8.6-51.49-5.08-19.48,3.96-33.24,19.18-44.83,36.3-.22.32-.23.64-.15.92-14.88,1.85-29.86,3.07-44.68,4.72,2.61-2.51,5.22-5,7.83-7.47,19-17.96,38.23-35.94,52.95-58.55,14.35-22.05,24.58-46.93,33.67-71.98,3.58-9.87,7.02-19.93,10.51-30.01.11,0,.23-.03.35-.07.54.57,1.56.06,1.63-.8,19.43-9.65,35.52-26.68,45.67-47.55,4.98-10.25,8.5-21.32,10.23-32.73.93-6.14,1.16-12.25,1.23-18.43.08-7.6.34-15.35,4.93-21.59.81-1.1-.77-2.33-1.58-1.23-.05.06-.08.13-.13.2-.07.02-.13.02-.2.05-23.16,11.66-46.19,25-58.35,51.27-9.71,20.98-11.5,45.77-4.61,67.53-12.63,36.52-24.73,73.54-45.68,105.2,2.48-11.37-.32-24.75-1.6-35.71-1.14-9.74-2.47-19.44-3.69-29.17.29.04.59-.09.79-.49,8.16-16.29,12.51-34.55,12.21-52.99-.27-16.58-6.91-33.7-3.83-50.3.98-.26,1.95-.53,2.97-.71,1.25-.23.95-2.37-.3-2.14-.74.13-1.44.34-2.16.52.16-.64.29-1.29.48-1.93.4-1.34-1.43-2.06-1.83-.71-.31,1.06-.57,2.11-.8,3.17-.38.12-.74.28-1.12.41-.46-.25-1.11-.16-1.41.52-18.92,7.3-30.01,29.15-32.23,50.84-2.42,23.67,2.76,54.22,26.05,61.41.05.02.09,0,.14.01.6,4.66,1.21,9.31,1.8,13.97.97,7.65,1.86,15.32,2.53,23.03.68,7.85,1.74,16.06-1,23.67-.13.35-.08.66.05.89-.62.88-1.19,1.79-1.82,2.66-23.4,32.34-56.84,55.34-81.84,85.97,8.09-23.57,12.85-48.1,14.35-72.95,13.74-20.59,28.3-43.39,27.58-69.88-.34-12.54-5.03-22.92-11.02-33.09-5.28-8.96-11.09-18.27-12.47-28.98.5-.27.98-.58,1.49-.83,1.17-.57.38-2.54-.78-1.97-.32.16-.62.35-.93.51-.13-1.92-.12-3.87.07-5.88.14-1.4-1.81-1.56-1.94-.16-.24,2.45-.18,4.79.01,7.07-.22.12-.44.23-.66.36.29-1.35-1.53-2.07-1.83-.71-.16.73-.29,1.47-.44,2.2-17.39,11.92-25.95,34.94-25.65,57.16ZM109.8,57.82c-9.44,24.57-10.54,51.51-8.52,77.52.77,9.93,1.97,19.79,3.23,29.64-21.66-7.43-26.25-36.46-23.94-58.86,2.08-20.2,12.02-40.67,29.23-48.3ZM105.5,157.1c-.57-4.7-1.12-9.4-1.58-14.12-2.82-28.8-2.6-58.84,8.35-86.1.22-.08.44-.17.66-.24-2.24,14.3,2.44,28.46,3.62,42.68,1.64,19.84-2.38,40.06-11.05,57.78ZM216.91,4.5s-.05.03-.08.06c-19.96,20.8-33.93,46.95-45.09,74.38-4.97,12.2-9.44,24.74-13.82,37.35-5.94-20.9-3.79-44.35,5.61-64.2,11.34-23.94,32.19-36.72,53.38-47.59ZM217.98,3.95c-.07.14-.13.27-.2.41-.14-.08-.3-.1-.47-.07.22-.11.44-.23.66-.34ZM159.04,119.89c-.06-.19-.12-.38-.19-.57,14.01-40.35,29.14-80.83,57.57-111.36-2.44,8.22-1.31,17.63-1.99,26.16-.96,12.03-4.04,23.88-8.8,34.85-9.69,22.36-26.28,40.75-46.6,50.92ZM144.04,250.77c13.58-2.41,27.26-.04,40.52,3.14-18.45,14-39.17,23.6-60.96,28.03-7.98,1.62-16.02,2.85-24.1,3.89,11.53-16.91,25.14-31.62,44.54-35.06ZM93.85,288.78c11.28-1.31,22.52-2.94,33.58-5.46,21.4-4.86,41.71-14.78,59.76-28.79,1.69.42,3.37.85,5.05,1.28-7.23,6.5-14.46,13-21.69,19.51-7.73,6.95-15.5,15.64-24.42,20.58-17.36,9.63-36.42.96-52.27-7.12ZM39.09,240.72c.35-7.38.42-14.78.2-22.2-1.04-34.55-6.54-69.47.38-103.91.47-.31.95-.61,1.43-.91,2.84,20.01,20.12,34.45,22.91,54.9,3.67,26.88-10.98,51.08-24.92,72.11ZM37.38,116.21c-5.88,31.7-1.74,63.76-.29,95.56.48,10.52.41,21-.18,31.42-10.46-21.08-20.8-43.07-22.44-67.72-1.49-22.35,5.78-46.45,22.91-59.25Z"/>
    </g>
  </g>
</svg>