<?xml version="1.0" encoding="UTF-8"?>
<svg id="Capa_2" xmlns="http://www.w3.org/2000/svg" xmlns:xlink="http://www.w3.org/1999/xlink" viewBox="0 0 174.18 246.54">
  <defs>
    <style>
      .cls-1 {
        fill: url(#Dull_Brass);
      }

      .cls-2 {
        fill: url(#Dull_Brass-15);
      }

      .cls-3 {
        fill: url(#Dull_Brass-13);
      }

      .cls-4 {
        fill: url(#Dull_Brass-2);
      }

      .cls-5 {
        fill: url(#Dull_Brass-12);
      }

      .cls-6 {
        fill: url(#Dull_Brass-7);
      }

      .cls-7 {
        fill: url(#Dull_Brass-6);
      }

      .cls-8 {
        fill: url(#Dull_Brass-8);
      }

      .cls-9 {
        fill: url(#Dull_Brass-3);
      }

      .cls-10 {
        fill: url(#Dull_Brass-14);
      }

      .cls-11 {
        fill: url(#Dull_Brass-4);
      }

      .cls-12 {
        fill: url(#Dull_Brass-11);
      }

      .cls-13 {
        fill: url(#Dull_Brass-16);
      }

      .cls-14 {
        fill: url(#Dull_Brass-9);
      }

      .cls-15 {
        fill: url(#Dull_Brass-5);
      }

      .cls-16 {
        fill: url(#Dull_Brass-10);
      }
    </style>
    <linearGradient id="Dull_Brass" data-name="Dull Brass" x1="-1782.84" y1="1813.03" x2="-1705.01" y2="1930.69" gradientTransform="translate(984.65 -1645.28) rotate(-111.88) scale(.76 -.81)" gradientUnits="userSpaceOnUse">
      <stop offset="0" stop-color="#ebc17d"/>
      <stop offset=".19" stop-color="#dfb77c"/>
      <stop offset=".6" stop-color="#c08329"/>
      <stop offset=".87" stop-color="#eabe81"/>
      <stop offset="1" stop-color="#eedcc3"/>
    </linearGradient>
    <linearGradient id="Dull_Brass-2" data-name="Dull Brass" x1="-1701.8" y1="1814.15" x2="-1679.41" y2="1848" xlink:href="#Dull_Brass"/>
    <linearGradient id="Dull_Brass-3" data-name="Dull Brass" x1="-1742.95" y1="1873.09" x2="-1731.42" y2="1890.53" xlink:href="#Dull_Brass"/>
    <linearGradient id="Dull_Brass-4" data-name="Dull Brass" x1="-1764.15" y1="1807.43" x2="-1723.8" y2="1868.44" xlink:href="#Dull_Brass"/>
    <linearGradient id="Dull_Brass-5" data-name="Dull Brass" x1="-1799.47" y1="1934.1" x2="-1772.7" y2="1974.58" xlink:href="#Dull_Brass"/>
    <linearGradient id="Dull_Brass-6" data-name="Dull Brass" x1="-1812.44" y1="1895.68" x2="-1774.6" y2="1952.89" xlink:href="#Dull_Brass"/>
    <linearGradient id="Dull_Brass-7" data-name="Dull Brass" x1="-1728.26" y1="1764.37" x2="-1717.51" y2="1780.62" xlink:href="#Dull_Brass"/>
    <linearGradient id="Dull_Brass-8" data-name="Dull Brass" x1="-1691.13" y1="1835.64" x2="-1685.08" y2="1844.79" xlink:href="#Dull_Brass"/>
    <linearGradient id="Dull_Brass-9" data-name="Dull Brass" x1="-1783.71" y1="1863.23" x2="-1774.49" y2="1877.17" xlink:href="#Dull_Brass"/>
    <linearGradient id="Dull_Brass-10" data-name="Dull Brass" x1="-1748.6" y1="1898.9" x2="-1743.52" y2="1906.59" xlink:href="#Dull_Brass"/>
    <linearGradient id="Dull_Brass-11" data-name="Dull Brass" x1="-1665.63" y1="1721.59" x2="-1656.01" y2="1736.12" xlink:href="#Dull_Brass"/>
    <linearGradient id="Dull_Brass-12" data-name="Dull Brass" x1="-1608.44" y1="1745.88" x2="-1598.85" y2="1760.38" xlink:href="#Dull_Brass"/>
    <linearGradient id="Dull_Brass-13" data-name="Dull Brass" x1="-1623.52" y1="1703.37" x2="-1611.13" y2="1722.11" xlink:href="#Dull_Brass"/>
    <linearGradient id="Dull_Brass-14" data-name="Dull Brass" x1="-1642.72" y1="1801.58" x2="-1637.95" y2="1808.79" xlink:href="#Dull_Brass"/>
    <linearGradient id="Dull_Brass-15" data-name="Dull Brass" x1="-1672.9" y1="1862.25" x2="-1661.21" y2="1879.91" xlink:href="#Dull_Brass"/>
    <linearGradient id="Dull_Brass-16" data-name="Dull Brass" x1="-1757.12" y1="1813.62" x2="-1753.26" y2="1819.45" xlink:href="#Dull_Brass"/>
  </defs>
  <g id="mask">
    <g>
      <path class="cls-1" d="M.53,243.54c45.21-46.21,87.53-95.68,126.53-147.96,10.92-14.64,21.58-29.51,31.98-44.57,1.2-1.74,3.56.22,2.37,1.95-37.21,53.9-77.81,105.16-121.48,153.26-12.3,13.55-24.84,26.84-37.6,39.88-1.46,1.49-3.23-1.09-1.79-2.56h0Z"/>
      <path class="cls-4" d="M60.07,178.46c27.47-36.62,48.19-78.85,60.45-123.48,3.42-12.43,6.16-25.03,8.27-37.72.35-2.09,3.36-1.69,3.01.4-7.61,45.82-23.84,90.22-47.45,130-6.72,11.33-14.05,22.26-21.92,32.74-1.26,1.68-3.63-.27-2.37-1.95h0Z"/>
      <path class="cls-9" d="M51.78,190.38c20.11-25.14,32.37-56.6,34.74-88.98.15-2.1,3.16-1.69,3.01.4-2.4,32.88-14.96,64.99-35.38,90.52-1.31,1.63-3.68-.31-2.37-1.95h0Z"/>
      <path class="cls-11" d="M67.53,172.1c19.83-29.25,45.89-53.31,75.67-69.99,1.77-.99,2.83,2.02,1.07,3.01-29.29,16.41-54.88,40.17-74.38,68.93-1.18,1.75-3.55-.21-2.37-1.95h0Z"/>
      <path class="cls-15" d="M.91,243.62c22.47-24.8,45.16-50.73,57.87-82.8.78-1.97,3.56-.76,2.78,1.21-12.82,32.34-35.62,58.53-58.28,83.54-1.39,1.53-3.77-.4-2.37-1.95h0Z"/>
      <path class="cls-7" d="M21.34,222.56c16.65-24.18,40.81-41.68,67.59-49.19,1.91-.54,2.18,2.71.27,3.25-25.96,7.28-49.37,24.49-65.49,47.89-1.2,1.74-3.56-.22-2.37-1.95h0Z"/>
      <path class="cls-6" d="M150.13,98.49c-.08,2.51-.42,5.19-2.24,7.07-1.5,1.55-3.86,2.11-5.68,1.13-4.77-2.55-.18-8.76,3.02-10.53,3.94-2.17,8.83-.69,9.38,4.31.45,4.08-2.44,8.56-6.6,7.85-3.56-.6-6.3-4.96-4.89-8.79,1.51-4.12,6.75-4.97,9.7-2.6,3.63,2.91,1.99,9.66-.96,12.79-3.29,3.49-9.27,1.93-10.09-2.97-.7-4.23,3.4-8.39,7.3-7.64,4.15.8,5.99,7.36,1.44,9.5-4.56,2.15-6.58-4.09-4.76-7.73,2.06-4.14,7.14-4.87,9.49-1,2.1,3.46.81,8.66-3.34,9.69-3.96.99-8.26-2.36-7.34-6.94.83-4.14,5.43-6.98,8.96-5.19,4.79,2.43,2.61,9.69-.8,12.71-4.43,3.93-11.72,1.47-10.89-5.22.65-5.27,5.95-9.73,10.8-8.26,4.41,1.34,7,7.64,3.98,11.98-2.73,3.91-8.8,4.02-11.12.02-1.01-1.74,1.45-3.8,2.47-2.05,2.01,3.45,7.55,1.34,6.84-2.96-.81-4.89-6.34-4.97-8.86-1.24-1.54,2.28-1.57,5.88,1.45,6.42,2.63.46,5.19-2.36,5.74-4.98,1.57-7.47-9.08-1.68-4.56,1.92,1.45,1.15,4.02.93,4.6-1.24.51-1.89-.94-4.48-2.91-3.91-1.92.56-3.3,5.62-.78,4.96,2-.52-.28-3.31-1.57-3.3-.85,0-1.78.61-2.33,1.28-1.56,1.87-.47,4.32,1.63,4.75,2.95.6,4.91-4.13,4.69-6.76-.35-4.33-7.64-2.95-5.71,1.39.69,1.56,2.62,2.88,4.21,1.68,1.56-1.18,1.72-4.31.4-5.6-1.86-1.82-5.09.13-6.48,1.9-.24.3-.54.65-.66,1.03-.39,1.21.37,2.24,1.54,1.77,1.64-.66,1.89-3.33,1.94-4.82.07-2.08,3.11-2.55,3.04-.45h0Z"/>
      <path class="cls-8" d="M94.21,98.23c.74,5.58-6.06,9.7-9.63,5.44-1.47-1.76-1.96-4.5-.89-6.74,1.08-2.28,3.54-3.49,5.8-3.31,2.46.19,4.4,2.13,4.62,4.79.21,2.59-1.18,5.45-3.56,6.42-4.39,1.8-8.68-4.5-5.34-8.37,1.8-2.09,5.66-2.33,6.55.67.77,2.59-2,5.88-4.44,4.52-.71-.4-1.14-1.25-.76-2.13.58-1.34,1.17-2.69,1.75-4.03.52-1.21,1.88-1.3,2.62-.42,1.07,1.26,2.05,2.96,1.36,4.78-.54,1.41-1.87,2.41-3.27,2.12-1.9-.4-1.4-3.66.52-3.25-.24-.05.08.4-.21-.46-.15-.42-.59-.82-.86-1.14.87-.14,1.75-.28,2.62-.42-.58,1.34-1.17,2.69-1.75,4.03l-.76-2.13c.08.05.27-.35.27-.36-.24-.39-1.08.02-1.31.22-.86.77-.4,2.09.25,2.76,2.13,2.22,4.58-2.3,2.55-3.91-2.14-1.7-5.14,1.01-3.81,3.56,1.44,2.77,5.03.66,4.65-2.2-.28-2.07,2.76-2.52,3.04-.45h0Z"/>
      <path class="cls-14" d="M97.65,167.39c3.09,6.36-1.75,15.63-9.02,13.28-7.83-2.53-4.6-13.03,1.95-15.49,3.15-1.19,6.52-.57,8.38,2.4,1.72,2.74,1.51,6.53-.77,9.02-2.36,2.57-6.58,3.44-9.08.96-2.06-2.04-1.23-5.32,1.14-6.83,2.33-1.48,5.19-.5,5.78,2.37.6,2.96-1.58,6.3-4.5,6.38-2.81.08-4.98-2.84-4.8-5.75.18-3.06,3.03-5.45,5.82-5.16,7.5.76,1.4,12.97-3,8.07-1.76-1.96-.98-5.76,1.27-7.13,2.4-1.46,4.86.42,5.39,2.94.68,3.21-1.73,6.46-4.93,5.72-3.06-.71-4.89-4.62-2.89-7.6,1.61-2.4,6.38-3.71,7.98-.8,1.38,2.5-2.68,4.9-3.84,2.11-.79-1.89,2.07-3.18,2.86-1.29.36.87-2.97.79-3.54,1.03-.68.28-1.14.77-1.18,1.55-.08,1.51,2.23,2.73,2.62.81.33-1.66-1.89-2.09-1.62-.4.28,1.78,2.83-1.5.24-1.76-1.4-.14-2.39,1.53-2.01,2.81.49,1.67,2.93,2.26,3.16-.07.09-.94-.4-1.38-1.18-1.12-1.03.35-.84.9-.41,1.55.98,1.5,3.35.65,4.46-.44,2.7-2.66.29-6.99-2.92-6.68-2.78.27-6.33,3.18-6.05,6.48.27,3.18,4.25,4.35,6.55,2.56,2.5-1.95,2.53-5.67,1.29-8.23-.89-1.83,1.98-3.11,2.86-1.29h0Z"/>
      <path class="cls-16" d="M62.37,155.79c2.07,3.11.22,8.33-3.65,8.7-3.31.32-6.17-3.43-4.94-6.88s5.58-4.79,8.02-2.46c2.7,2.58,1.39,8.02-2.61,8.13-1.89.05-3.55-1.34-3.54-3.45.01-2.3,1.78-4.09,3.88-4.02.55.02.96.49,1.17.98.72,1.62-.1,3.44-1.62,4.18-1.82.89-2.89-2.12-1.07-3.01l-.17.12,1.17.98c-.45-.02-.34.78-.04.92.6.29,1.19-.33,1.26-.92.23-1.93-1.98-2.18-3.08-1.16-1.15,1.07-.41,2.84.85,3.25,1.68.55,2.79-1.98,1.91-3.31-1.11-1.68,1.35-3.73,2.47-2.05h0Z"/>
      <path class="cls-12" d="M166.75,42.3c2.69-.72,4.71,2.11,4.16,4.83-.67,3.29-4.28,5.82-7.03,6.92s-5.87.94-7.52-1.77c-1.77-2.92-.53-6.97,1.4-9.61,2.21-3.02,5.73-4.99,9.22-4.22,3.33.73,5.59,3.73,5.46,7.41-.21,5.94-6.93,11.97-12.18,8.73-5.42-3.34-2.92-13.71,3.86-12.99,7,.74,3.44,12.68-1.82,9.31-1.77-1.13-2.64-4.09-1.33-6.08,1.59-2.41,4.77-1.72,6.03.45,3.32,5.72-7.2,9.92-8.6,2.53-.68-3.6,1.85-7.44,5.37-7.76,3.1-.28,5.58,2.89,4.83,6.18-.72,3.16-4.21,4.3-6.53,2.58-3.28-2.42-.84-6.26,1.74-8.14.63-.46,1.71-.53,2.13.26,1.94,3.59.53,8.4-3.44,9.82-1.88.67-2.96-2.34-1.07-3.01,1.85-.66,3.1-2.79,2.04-4.76.71.09,1.42.17,2.13.26-.33.24-.98.57-1.2.92-.06.7-.13,1.41-.19,2.11.48-.45.96-.89,1.45-1.34.27-2.43-3.34-1.42-4.05.1-.36.77-.4,2.34.17,2.98l1.92.58c.07-.66.13-1.32.2-1.97-.48.07-.6.88-.24,1.13.75.54,1.76-1.2,1.37-1.98-1.61-3.25-7.01,2.47-3.66,5.6,1.78,1.66,4.51.5,6.08-1.08,1.9-1.91,2.89-5.49.83-7.5-2.51-2.43-6.18-.83-8.14,1.84-1.88,2.57-2.35,7.62,1.85,6.67,1.11-.25,2.17-.83,3.12-1.51.41-.29.81-.61,1.18-.95.08-.07,3.34-3.98.75-3.28-1.92.51-2.18-2.74-.27-3.25h0Z"/>
      <path class="cls-5" d="M134.87,10.02c2.44,1.24,3.29,4.01,1.67,6.56s-4.59,4.34-7.49,4.54c-6.22.42-10.13-6.52-5.44-11.81,4.29-4.84,12.33-4.13,13.97,2.58,1.36,5.54-4.53,11.6-9.45,8.42-2.21-1.42-3.34-4.64-2.11-7.31,1.07-2.33,3.83-3.71,6.07-2.83,4.65,1.84,1.74,10.28-2.98,9.26-4.63-1-4.2-9.27.6-10.05,4.93-.79,7.73,6.57,3.38,9.7-2.19,1.57-5.43,1.4-7.15-.64-1.87-2.22-1.64-6.38,1.08-7.99,2.33-1.38,5.84-.05,5.81,3.03-.02,2.75-2.76,4.74-5.06,3.75-.63-.28-.96-1-.87-1.72.28-2.19,1.42-3.72,3.26-4.68.47-.24,1.12-.16,1.5.19,1.74,1.58,1.62,3.89-.03,5.63-.7.74-2.07.29-2.32-.63-.52-1.9-.44-3.65.42-5.49s3.68-.71,2.78,1.21c-.46.99-.63,1.92-.34,2.98-.77-.21-1.55-.42-2.32-.63l-.1-.44c.5.06,1,.12,1.5.19-.88.43-1.33,1.12-1.33,2.07-.29-.57-.58-1.15-.87-1.72.23.1,1.42-1.28-.36-.63-1.04.38-1.21,1.47-.61,2.39.63.97,2.13,1.17,3.11.61,2.78-1.57-.5-5.33-1.97-3.42-.48.63-.48,2.16.07,2.72.87.87,2.12-.35,2.13-1.46.02-2.01-2.42-1.18-2.81.31-.45,1.71,1.18,3.19,2.63,3.11,3.08-.18,4.36-3.85,2.85-6.36-1.56-2.58-4.84-2.62-7.18-.98-2.99,2.11-3.23,6.26.53,7.2,1.27.32,2.61.12,3.83-.46.72-.34,4.67-3.01,2.36-4.19-1.74-.88-.48-3.93,1.26-3.04h0Z"/>
      <path class="cls-3" d="M172.15,8.97c2.45,7.85-4.72,15.76-12.12,13.09-7.46-2.7-8.6-13.7-2.42-19.23,5.54-4.95,14.44-3.35,16.27,4.29,1.72,7.19-4.26,14.13-11.09,11.83-6.61-2.23-7.09-13.55.48-15.46,3.43-.87,7.26,1.15,8.02,4.9.68,3.31-1.34,7.19-4.45,8.29-6.79,2.4-10.17-8.33-3.63-11.72,2.87-1.49,6.74-1.12,7.41,2.66.69,3.93-2.57,6.73-5.61,8.17-3.52,1.68-7.55.52-7.21-4.28.24-3.42,4.68-8.49,8.07-8.17,3.43.32,3.44,5.11,1.87,7.58-2.35,3.67-7.01,4.77-10.5,2.95-.6-.31-1-.97-.87-1.72.48-2.92,1.2-6.36,3.79-8.05,1.9-1.24,4.56-1.05,6.07.62,4.67,5.15-5.76,10.5-9.44,10.72-1.19.07-1.93-1-1.53-2.23,1.08-3.26,4.65-11.15,8.86-9.98,4.39,1.22,2.16,6.73.08,9.18-.82.97-2.71.8-2.7-.75,0-2.16.51-3.84,1.9-5.51,1.2-1.44,3.17-.21,2.57,1.58-.52,1.57-1.3,2.65-2.55,3.65-1.61,1.29-3.4-1.27-1.79-2.56.85-.56,1.37-1.33,1.57-2.31.86.53,1.72,1.05,2.57,1.58-.84.8-1.25,1.84-1.23,3.11-.9-.25-1.8-.5-2.7-.75.79-.93,1.23-1.08.79-2.39-.57-1.72-1.26-.03-2.04,1.07-1.14,1.61-1.93,3.39-2.55,5.27-.51-.74-1.02-1.49-1.53-2.23,2-.12,6.13-1.13,7.08-3.61.45-1.56.13-2.19-.97-1.88-1.01-.18-1.74.37-2.17,1.66-.69,1.23-.85,2.81-1.08,4.18l-.87-1.72c2.01,1.04,4.57.87,6.23-1.06.53-.47.86-1.07,1-1.82-.71-.99-1.4-1.05-2.07-.19-.96.38-2.28,1.95-2.61,2.9-1.49,4.33,4.51,1.77,5.85.03,1.85-2.41-1.29-3.76-3-2.49-1.17.87-1.63,2.22-1.14,3.58,1.3,3.61,5.79,1.31,5.52-2.1-.28-3.53-4.76-4.14-6.67-1.42-3.34,4.76,1.98,9.31,6.29,7.36,3.83-1.73,4.16-7.6,1.63-10.45-2.87-3.24-8.3-2.27-10.97,1.14-3.09,3.94-2.47,10.34,1.97,12.38,4.98,2.28,10.56-2.7,8.78-8.44-.61-1.96,2.24-3.27,2.86-1.29h0Z"/>
      <path class="cls-10" d="M103.6,55.75c-1.42,2.04-3.52,3.02-5.81,2.91-.67-.03-1.2-.73-1.26-1.4-.27-2.83.85-6.05,3.57-7.16,2.46-1,5.6.31,5.81,3.31.18,2.67-2.35,5.62-4.88,4.45-2-.92-2.55-4.25-.87-5.93,2.18-2.18,5.24.02,5.62,2.64.42,2.84-1.6,5.94-4.36,6.23-2.48.26-4.76-2.05-4.72-4.69s2.5-4.79,4.91-4.58c2.92.25,4.14,3.64,2.77,6.33-.67,1.32-2.11,2.5-3.53,2.15-1.6-.4-2.31-1.95-2.21-3.62.13-2.1,3.14-1.69,3.01.4,0-.15-.19.14-.03-.22.1-.24.23-.42.27-.69.05-.34.03-.73-.23-.95-.48-.4-1.49.02-1.79.57-.98,1.86,2.83,3.09,2.92.1.02-.57-.18-.83-.52-1.19.07.07-.3-.17-.07-.19.18-.01-.13.15.04.34.12.13.13.27.15.27.35.03.53-.88.47-1.12-.25-.97-1.65-.76-2.27-.26-.96.78-1.11,2.22-1,3.37l-1.26-1.4c1.21.06,2.2-.56,2.92-1.61,1.2-1.73,3.56.22,2.37,1.95h0Z"/>
      <path class="cls-2" d="M64.08,93.22c2.98-.54,4.75,2.51,3.72,5.41-1.19,3.35-4.78,5.26-7.89,5.48-6.99.48-11.84-6.24-9.29-13.45,2.63-7.45,11.01-9.35,15.95-4,4.95,5.34,2.37,15.41-4.98,17.1s-12.77-6.35-8.89-13.27c3.51-6.26,13.78-5.49,13.42,2.66-.14,3.21-2.31,5.98-5.37,6.24-2.65.22-5.5-1.63-5.5-4.68,0-7.25,10.24-8.68,10.48-1.05.11,3.57-2.95,6.21-6.15,5.46-3.29-.77-4.67-4.9-2.8-8.03,1.81-3.02,5.74-2.98,6.95.32,1.42,3.87-2.41,6.66-5.66,6.24-.49-.06-1.03-.45-1.17-.98-.83-3.12.25-7.15,3.8-7.59,2.89-.36,5.31,2.46,3.9,5.51-1.24,2.68-5.3,3.35-6.3.29-1.13-3.43,2.66-4.34,4.75-2.95,2.55,1.71,2.98,5.62.65,7.98-2.61,2.64-6.66,2.14-8.68-.69-2.08-2.92-1.93-7.36.63-10.13,2.11-2.28,5.58-2.89,7.33-.06,2.09,3.38-.11,8.91-3.31,10.86-3.19,1.95-7.46-.19-6.73-4.38.36-2.08,3.37-1.69,3.01.4l1.41,1.53,1.93-1.35c.52-.59,1.21-1.88,1.28-2.77.09-1.18-.66-2.92-1.77-2.72-.76.14-1.57,1.31-1.85,1.96-.7,1.65-.26,4.25,1.13,5.27,3.38,2.49,5.42-4.08,1.94-3.22l1.25-1.02c.32.09.07.05-.73-.13-1.15-.5-1.41.14-.79,1.9-.39-.33-.78-.65-1.17-.98.35-1.17.73-1.04,1.14.4.27,1.3.86,1.52,1.76.67,1.19-.52,1.56-1.44.96-2.66-1.6-3.27-6.13,1.47-2.99,3.15,2.4,1.29,4.19-2.15,3.42-4.26-.78-2.15-3.53-2.79-5.44-1.81-3.56,1.84-3.93,7.23-1.02,9.56,3.34,2.67,7.95.63,9.37-3.58,2.78-8.22-8.9-12.76-12.26-4.42-1.47,3.65-.17,7.58,3.22,8.94,1.24.5,2.66.61,3.99.33.81-.17,1.65-.47,2.36-.96l.61-.48c1.06-.67,1.27-1.61.63-2.82-1.95.35-2.23-2.89-.27-3.25h0Z"/>
      <path class="cls-13" d="M124.21,138.8c3.61-1.32,4.36,5.16.75,5.64-1.69.22-3.08-1.21-3.51-2.83-.46-1.71.11-3.51,1.3-4.79,1.09-1.17,2.67-1.9,4.18-1.59s2.61,1.62,2.65,3.3c.08,3.52-3.82,6.14-6.23,3.43-1.23-1.39-1.23-3.93.32-5.23,1.8-1.49,4.18-.69,5.1,1.28.86,1.85-2,3.13-2.86,1.29-.06-.13-.39-.08-.42.06-.06.31.41.52.44.52.28-.03.98-1.24.3-1.44-.8-.23-1.86.85-1.92,1.68-.02.25.04.52.16.73.04.06.2.21.2.27.02.17.02-.05-.01.06s-.6.65-.35.27c-.04.07.07.18-.02.02-.06-.13-.03-.11.07.06.17.31.47.4.89.26-1.87.69-2.96-2.32-1.07-3.01h0Z"/>
    </g>
  </g>
</svg>