<?xml version="1.0" encoding="UTF-8"?>
<svg id="Capa_2" xmlns="http://www.w3.org/2000/svg" viewBox="0 0 644.82 529.22">
  <defs>
    <style>
      .cls-1 {
        fill: #6b8a5e;
      }
    </style>
  </defs>
  <g id="Capa_3">
    <g id="Capa_7">
      <path class="cls-1" d="M109.42,203.7c-14.89-2.17-19.35-7.33-19.38-21.67-.04-18.81-.05-37.63-.02-56.44.02-9.93,5.51-16.19,15.42-17.6,1.97-.28,3.98-.33,5.97-.34,26.65-.08,53.29-.14,79.94-.21,1.58,0,3.16,0,3.93,0-5.55-6.83-12.06-13.15-16.53-20.67-16.67-28.05-4.75-64.86,25.09-77.84,17.03-7.41,33.98-4.67,50.26,2.93,24.65,11.5,42.16,30.4,54.6,54.22,1.62,3.1,3.24,4.45,6.77,4.18,4.3-.33,8.69-.45,12.97.02,4.04.44,5.88-1.26,7.54-4.64,9.47-19.22,23.04-34.94,41.05-46.65,11.45-7.45,23.85-12.33,37.58-13.83,30.21-3.32,52.57,18.05,57.23,44.24,4.19,23.55-5.17,42.21-23.99,57.78,2.36.12,4.03.28,5.7.28,26.48.07,52.96.05,79.44.25,3.76.03,7.71.52,11.23,1.77,6.23,2.22,9.64,7.14,9.68,13.77.14,21.14.14,42.29.02,63.43-.05,9.07-5.46,14.99-14.37,16.34-1.62.25-3.24.42-5.2.66-.09,1.81-.24,3.42-.24,5.04-.03,30.63.04,61.27-.16,91.9-.03,4.06,1.45,6.84,4.03,9.67,17.83,19.5,29.95,42.04,33.97,68.25,6.17,40.15-3.83,76.09-31.07,106.44-26.43,29.45-60.01,44.26-99.54,44.24-34.79-.02-64.92-12.84-90.41-36.4-3.2-2.96-6.28-4.18-10.56-4.18-68.45.07-136.89,0-205.34,0-17.58,0-25.66-7.97-25.66-25.6,0-84.41.02-168.81.03-253.22,0-1.96,0-3.92,0-6.11ZM121.19,203.42c0,2.07,0,3.7,0,5.34.01,84.88.03,169.75.04,254.63,0,11.04,2.47,13.57,13.47,13.57,47.95,0,95.89-.03,143.84-.06,1.77,0,3.54-.15,5.41-.24V203.63h-18.64c-.21,1.35-.41,2.32-.52,3.3-1.45,13.9-2.69,27.82-4.41,41.68-.96,7.79-6.54,9.88-12.82,5.18-6.39-4.79-13.1-9.26-18.9-14.69-6.41-5.98-12.12-7.16-19.98-2.36-7.17,4.39-15.25,7.39-23.14,10.47-6.87,2.68-10.75-.39-10.38-7.57.17-3.32.39-6.65.84-9.94,1.18-8.65,2.49-17.28,3.8-26.27h-58.61ZM345.86,399.55c.08,51.85,43.75,94.65,96.35,94.44,52.78-.21,96.16-42.78,96.42-94.62.27-53.17-42.82-95.75-96.99-95.83-52.88-.08-95.86,43.02-95.78,96.02ZM335.92,476.65c-2.22-3.51-4.07-6.41-5.89-9.33-16.95-27.22-23.3-56.67-18.18-88.38,4.14-25.69,15.67-47.84,32.82-67.26,1.81-2.05,3.51-5.08,3.53-7.67.3-31.79.21-63.59.43-95.39.03-4.19-1.3-5.46-5.36-5.41-14.32.17-28.64.06-42.96.09-1.26,0-2.53.35-3.81.54v272.81h39.43ZM464.6,203.59c0,1.02-.07,1.67.01,2.29,1.49,10.88,3.3,21.72,4.41,32.63.91,9-3.5,11.96-11.84,8.29-8.53-3.75-17.05-7.54-25.3-11.85-4.9-2.55-8.54-2.38-12.89,1.28-7.51,6.31-15.5,12.07-23.45,17.83-5.54,4.01-10.75,1.87-11.66-4.65-.78-5.59-1.25-11.23-1.82-16.85-.98-9.56-1.94-19.12-2.93-28.91h-18.77v92.62c53.83-36.4,107.54-36.96,161.69-1.21v-91.48h-57.43ZM300.32,73.96c-14.05-26.5-33.12-47.72-63.71-55.78-12.01-3.17-23.83-2.54-34.47,4.79-22.63,15.58-25.76,48.03-6.45,67.6,11.93,12.09,27.07,16.53,43.53,16.87,15.14.31,30.3.03,45.45-.03,1.76,0,3.52-.24,5.53-.39,0-2.53-.26-4.55.05-6.49.74-4.61-1.16-6.14-5.68-6.94-19.64-3.49-37.66-10.81-53.03-23.92-3.67-3.13-4.6-6.57-2.17-9.33,2.37-2.71,6.1-2.55,9.71.49,11.8,9.94,25.46,16.04,40.19,20.33,8.53,2.48,15.72,2.66,20.54-6.17.08-.15.15-.3.51-1.04ZM343.65,74.19c1.97,2.21,3.63,3.51,4.56,5.21,2.14,3.94,5.06,4.22,9.14,3.4,17.6-3.53,33.76-10.02,47.51-21.84,3.1-2.67,6.37-3.98,9.73-.8,2.74,2.59,1.68,6.32-2.34,9.7-14.86,12.53-31.98,20.09-51.07,23.46-7.45,1.31-7.16,1.46-7.46,8.99-.17,4.32,1.48,5.33,5.44,5.28,14.32-.18,28.64.16,42.95-.2,6.77-.17,13.66-.85,20.24-2.41,24.38-5.76,39.17-24.04,38.77-47.18-.39-22.01-19.81-45.26-46.92-40.68-34.18,5.78-54.81,28.29-70.56,57.06ZM433.79,119.22c.16,1.22.11,1.6.26,1.85,12.68,20.59,20.77,43.03,26.48,66.38.81,3.32,2.28,4.1,5.43,4.08,22.79-.1,45.58-.02,68.38-.03,6.87,0,8.31-1.57,8.31-8.69,0-17.79,0-35.59,0-53.38,0-8.28-1.65-10.04-9.82-10.06-31.28-.07-62.55-.1-93.83-.15-1.63,0-3.26,0-5.21,0ZM209.63,119.56c-.79-.07-1.9-.25-3.01-.25-32.6-.04-65.21-.09-97.81-.07-4.91,0-7.01,2.03-7.04,7.03-.13,19.29-.17,38.58-.12,57.87.01,5.46,1.83,7.22,7.21,7.22,23.29.01,46.58-.11,69.87-.02,3.13.01,4.23-1.16,5-4.05,2.29-8.49,4.37-17.12,7.6-25.27,5.61-14.17,12.03-28.01,18.31-42.46ZM456.67,234.23c0-1.69.16-2.68-.02-3.6-3.43-16.93-6.4-33.98-10.49-50.75-4.91-20.14-12.82-39.18-24.29-56.55-1.25-1.9-3.97-3.96-6.05-4-16.48-.27-32.96-.07-49.44.02-.4,0-.79.4-1.44.75,21.43,37.14,25.66,78.51,29.87,120.84,8.43-6.59,16.11-12.37,23.53-18.48,3.73-3.07,7.14-3.32,11.4-1.15,8.71,4.44,17.61,8.49,26.93,12.94ZM249.22,240.91c4.5-42.23,8.51-83.62,29.8-121.01-1.13-.27-1.74-.54-2.35-.54-16.3-.06-32.6-.18-48.9,0-1.58.02-3.77,1.48-4.61,2.91-4.77,8.16-9.78,16.26-13.66,24.85-12.07,26.74-17.49,55.32-22.14,84.06-.12.73.12,1.52.25,2.97,9.01-4.24,17.67-8.03,26.04-12.37,4.95-2.57,8.76-2.38,13.1,1.36,7,6.03,14.49,11.52,22.46,17.78ZM349.96,155.81s.04,0,.05,0c0-10.48-.14-20.96.07-31.44.08-3.88-1.16-5.28-5.11-5.23-15.31.18-30.62.2-45.93.05-3.71-.04-4.87,1.14-4.84,4.86.14,20.96.12,41.92,0,62.88-.02,3.45,1.05,4.66,4.54,4.62,15.64-.16,31.29-.21,46.93-.06,3.68.03,4.42-1.41,4.36-4.73-.18-10.31-.07-20.63-.07-30.94ZM320.86,394.99c3.83,0,6.96-.19,10.06.05,3.74.29,5.09-.94,5.4-4.93,4.05-51.77,45.74-91.02,94.49-96.07,8.03-.83,7.8-.82,7.82-8.86.02-4.56-1.32-5.97-6.06-5.47-45.03,4.76-78.1,27.3-99.35,67-7.84,14.64-11.82,30.58-12.37,48.28ZM563.16,395.65c-1.85-33.79-14.98-62.47-40.48-85.15-21.28-18.92-46.19-29.31-75.21-30.75-.13,2.94-.06,5.1-.36,7.2-.69,4.88,1.42,6.24,6.18,7.12,10.07,1.87,20.44,3.69,29.79,7.64,37.01,15.61,58.37,43.91,64.62,83.48,2.03,12.87,1.65,12.94,14.11,11.34.15-.02.27-.17,1.35-.88ZM320.59,403.69c2.56,36.58,17.95,65.28,45.52,88.14,3.96-3.24,7.52-6.15,11.32-9.25-1.14-1.05-2.04-1.75-2.78-2.58-7.82-8.78-16.42-17-23.24-26.5-9.56-13.34-13.9-28.92-15.49-45.26-.16-1.6-1.82-4.13-3.09-4.33-3.69-.59-7.54-.21-12.24-.21ZM523.62,486.55c.87-.33,1.21-.38,1.45-.57.77-.63,1.54-1.27,2.25-1.97,19.36-18.89,31.1-41.64,34.62-68.51,1.45-11.1,1.36-11.02-9.84-10.33-3.02.18-3.85,1.41-4.14,4.24-2.53,24.96-12.92,46.17-30.75,63.78-.79.78-1.5,1.64-2.51,2.73,3.14,3.74,6.09,7.25,8.92,10.62ZM508.44,482.06c-9.07,4.86-16.75,10.21-25.25,13.21-10.57,3.73-21.84,5.44-32.75,8.22-1.59.4-4,1.73-4.14,2.87-.51,4.01-.2,8.13-.2,12.62,26.82-1.32,50.1-9.72,71.28-26.02-3.2-3.9-6.19-7.55-8.94-10.9ZM370.61,495.48c20.1,14.5,41.71,22.13,66.47,23.47,0-4.21-.11-7.82.04-11.41.11-2.65-.79-3.94-3.58-4.17-17.03-1.37-32.75-6.81-47.5-15.32-1.25-.72-3.63-.75-4.86-.03-3.42,1.98-6.51,4.53-10.57,7.47ZM302.1,107.08h40.1c0-4.27.08-8.07-.02-11.86-.19-7.48-4.37-12.33-11.78-12.87-5.62-.41-11.33-.35-16.95.07-6.27.47-10.91,5-11.29,10.72-.3,4.45-.06,8.94-.06,13.94ZM282.54,140.51c-8.25,15.91-12.59,32.84-15.32,50.46h15.32v-50.46ZM377.17,191.06c-3.19-17.41-7.06-34.17-15.16-49.82v49.82h15.16Z"/>
      <path class="cls-1" d="M570.09,86.41c-.92-1.31-2.85-3.16-3.63-5.41-1.34-3.89-1.46-8.23-2.99-12.02-4.51-11.19-12.53-18.2-25.01-19.2-1.49-.12-3.31.2-4.4-.53-1.96-1.32-4.41-3.02-4.97-5.03-.89-3.19,1.53-5.16,4.73-5.77,2.12-.4,4.28-.62,6.39-1.05,14.34-2.96,23.7-12.94,25.77-27.42.28-1.97.08-4.27,1.05-5.82,1.14-1.83,3.36-4.2,5.02-4.14,1.68.07,4.06,2.55,4.72,4.46,1.89,5.43,2.4,11.4,4.67,16.63,4.15,9.55,11.93,14.82,22.34,16.16,2.45.31,5.21.46,7.17,1.71,1.63,1.03,3.15,3.59,3.11,5.44-.03,1.46-2.28,3.29-3.95,4.18-1.67.89-3.87.79-5.82,1.18-16.55,3.27-25.97,13.76-27.26,30.61-.27,3.51-1.46,5.72-6.94,6.02ZM586.23,42.92c-4.32-4.52-9.76-10.2-14.66-15.32-4.97,5.14-10.32,10.68-14.66,15.17,5.35,4.8,11.16,10.01,14.76,13.25,3.61-3.25,9.26-8.33,14.56-13.1Z"/>
      <path class="cls-1" d="M115.86,43.83c-2.11,2.01-3.41,3.94-5.21,4.8-2.03.96-4.52.97-6.81,1.38-14.33,2.51-24.82,13.64-26.57,28.19-.1.82-.12,1.66-.2,2.49-.33,3.2-1.79,5.42-5.27,5.47-3.6.06-4.81-2.46-5.3-5.48-.34-2.13-.3-4.33-.78-6.42-3.4-14.57-12.27-22.59-27.08-24.64-1.65-.23-3.66.1-4.87-.73-1.71-1.19-3.87-3.18-3.93-4.9-.06-1.68,1.94-4.3,3.64-4.98,3.49-1.4,7.46-1.54,11.11-2.62,12.51-3.7,18.85-12.88,21.66-25.01.52-2.26.18-4.85,1.16-6.84.95-1.92,3.35-4.75,4.63-4.52,1.96.36,4.32,2.71,5.04,4.73,1.49,4.17,1.54,8.85,3.01,13.04,4.06,11.6,12.35,18.17,24.69,19.52,2.13.23,4.43.47,6.25,1.46,1.67.91,2.79,2.84,4.85,5.07ZM71.88,27.72c-4.99,5.17-10.41,10.78-14.17,14.68,5.27,4.92,10.91,10.18,14.21,13.26,3.43-2.93,9.37-7.99,14.81-12.63-4.57-4.71-9.92-10.23-14.85-15.31Z"/>
      <path class="cls-1" d="M35.76,419.55c2.44,2.81,4.53,4.43,5.51,6.55,1.08,2.34,1.03,5.18,1.68,7.75,2.41,9.47,8.42,15.2,18.03,17.12,1.79.36,3.95.26,5.28,1.25,1.92,1.42,4.31,3.56,4.48,5.57.14,1.64-2.37,4.04-4.27,5.17-1.89,1.12-4.46,1.16-6.76,1.53-9.6,1.53-14.72,7.69-17.18,16.56-.58,2.08-.37,4.56-1.46,6.26-1.36,2.12-3.67,4.99-5.6,5.01-1.98.02-4.21-2.82-5.88-4.79-.85-1-.67-2.85-1-4.31-2.76-12.32-8.46-17.62-20.81-19.43-1.47-.22-3.33-.16-4.28-1.03-1.58-1.45-3.58-3.57-3.52-5.35.06-1.71,2.35-4.6,3.92-4.8,15.85-1.96,24.42-10.61,26.32-26.46.24-2.02,3.03-3.74,5.52-6.6ZM35.69,447.66c-3.09,2.71-7.29,6.39-10.74,9.41,3.43,3.37,7.37,7.24,10.26,10.08,3.26-3.09,7.22-6.83,10.68-10.11-3.29-3.02-7.39-6.79-10.2-9.37Z"/>
      <path class="cls-1" d="M574.79,457.95c.05-4.4,2.7-5.64,6.15-6.17,8.11-1.26,15.04-4.64,18.89-12.25,1.77-3.5,2.89-7.44,3.67-11.31.78-3.82,2.03-6.96,6.4-6.82,4.17.14,5.42,3.54,5.76,7,1.39,13.99,9.2,21.52,22.94,23.33,3.43.45,6.2,1.91,6.22,5.85.03,3.99-2.95,5.23-6.22,5.94-2.11.46-4.24.83-6.36,1.24-7.4,1.41-12.06,6.02-14.63,12.85-.93,2.47-1.52,5.1-1.99,7.7-.67,3.71-1.92,7.12-6.22,7.2-4.31.08-5.82-3.17-6.36-6.97-.16-1.15-.42-2.29-.71-3.42-3.05-11.84-8.48-16.73-20.66-18.28-3.9-.5-6.75-1.77-6.87-5.91ZM598.03,457.59c3.87,3.35,7.98,6.89,10.82,9.35,3.35-2.98,7.5-6.65,10.57-9.38-3.48-3.42-7.34-7.22-10.2-10.03-2.81,2.52-6.95,6.24-11.2,10.05Z"/>
      <path class="cls-1" d="M444.77,343.44c.12-1.16.3-2.28.33-3.4.22-7.04,3.12-9.26,9.88-7,1.09.36,2.24,2.83,2.11,4.2-.54,5.34,1.58,7.76,6.86,8.67,4.54.79,8.91,2.6,13.31,4.09,2.86.97,3.46,2.5,1.5,5.21-4.68,6.47-5.13,6.69-13,4.35-9.65-2.87-19.32-5.08-29.37-1.68-7.31,2.48-10.72,6.71-11.08,14.23-.33,6.87,2.47,11.29,9.48,14.18,3.67,1.52,7.58,2.46,11.35,3.74,4.71,1.6,9.56,2.94,14.07,5,13.03,5.96,18.05,15.42,16.82,30.8-.89,11.17-8.86,20.74-21.1,23.72-5.34,1.3-7.27,3.5-6.53,8.67.61,4.27-1.87,4.99-5.47,4.77-3.21-.2-6.92.42-6.01-4.64,1.01-5.7-1.96-7.16-6.88-8.41-6.7-1.71-13.13-4.54-19.61-7.09-3.09-1.21-3.37-3.06-.98-5.67,5.35-5.82,5.7-5.82,12.8-2.69,8.18,3.6,16.76,5.51,25.77,4.23,7.01-1,11.76-5.07,13.23-11.14,1.92-7.92.17-15.08-6.08-18.52-5.73-3.15-12.28-4.81-18.51-7.01-2.19-.78-4.52-1.14-6.73-1.86-14.43-4.68-20.51-13.1-20.08-27.72.39-13.43,8.42-23.35,21.95-26.8,3.83-.98,7.79-1.46,11.95-2.21Z"/>
    </g>
  </g>
</svg>