<?xml version="1.0" encoding="UTF-8"?>
<svg id="Capa_2" xmlns="http://www.w3.org/2000/svg" viewBox="0 0 166.56 136.22">
  <defs>
    <style>
      .cls-1 {
        fill: #f9d19b;
      }

      .cls-2 {
        fill: none;
      }

      .cls-3 {
        fill: #ffe1b6;
      }

      .cls-4 {
        fill: #87a878;
      }
    </style>
  </defs>
  <g id="Objects">
    <g>
      <path class="cls-3" d="M58.23,0C26.07,0,0,26.07,0,58.23s26.07,58.23,58.23,58.23,58.23-26.07,58.23-58.23S90.39,0,58.23,0ZM58.23,104.01c-25.28,0-45.78-20.5-45.78-45.78S32.95,12.45,58.23,12.45s45.78,20.5,45.78,45.78-20.5,45.78-45.78,45.78Z"/>
      <g>
        <path class="cls-2" d="M58.23,12.45c-25.28,0-45.78,20.5-45.78,45.78,0,22.17,15.76,40.66,36.69,44.88l-3.13-7.78,3.13,7.78c2.94.59,5.98.91,9.09.91,25.28,0,45.78-20.5,45.78-45.78,0-8.94-2.57-17.28-7.01-24.33l-6.87,1.33,6.87-1.33c-8.1-12.88-22.43-21.45-38.77-21.45Z"/>
        <g>
          <path class="cls-1" d="M58.23,104.01c-3.11,0-6.15-.31-9.09-.91l5.31,13.22c1.25.08,2.51.14,3.78.14,13.61,0,26.12-4.68,36.03-12.51l-7.04-10.3c-7.9,6.47-17.99,10.36-29,10.36Z"/>
          <path class="cls-1" d="M116.46,58.23c0-9.68-2.38-18.8-6.55-26.83l-12.9,2.5c4.43,7.05,7.01,15.39,7.01,24.33,0,3.39-.38,6.69-1.08,9.88h12.68c.55-3.21.85-6.51.85-9.88Z"/>
        </g>
      </g>
      <path class="cls-3" d="M107.26,38.15c-27.08,0-49.03,21.95-49.03,49.03s21.95,49.03,49.03,49.03,49.03-21.95,49.03-49.03-21.95-49.03-49.03-49.03ZM107.26,125.73c-21.29,0-38.55-17.26-38.55-38.55s17.26-38.55,38.55-38.55,38.55,17.26,38.55,38.55-17.26,38.55-38.55,38.55Z"/>
      <polygon class="cls-4" points="164.11 43.39 160.41 36.28 153.3 32.58 143.61 30.13 140.51 43.3 147.1 49.59 153.39 56.18 166.56 53.09 164.11 43.39"/>
      <polygon class="cls-1" points="153.29 55.46 148.39 50.57 151.92 44.44 145.8 47.98 140.9 43.08 142.71 35.23 138.46 40.63 136.8 48.63 142.27 54.1 147.74 59.57 155.73 57.91 161.14 53.66 153.29 55.46"/>
    </g>
  </g>
</svg>